M48
; DRILL file {KiCad (6.0.4-0)} date Saturday, October 22, 2022 at 01:55:48 PM
; FORMAT={-:-/ absolute / inch / decimal}
; #@! TF.CreationDate,2022-10-22T13:55:48-04:00
; #@! TF.GenerationSoftware,Kicad,Pcbnew,(6.0.4-0)
; #@! TF.FileFunction,Plated,1,4,PTH
FMAT,2
INCH
; #@! TA.AperFunction,Plated,PTH,ViaDrill
T1C0.0157
; #@! TA.AperFunction,Plated,PTH,ComponentDrill
T2C0.0236
; #@! TA.AperFunction,Plated,PTH,ComponentDrill
T3C0.0394
; #@! TA.AperFunction,Plated,PTH,ComponentDrill
T4C0.0472
; #@! TA.AperFunction,Plated,PTH,ComponentDrill
T5C0.1260
%
G90
G05
T1
X2.0859Y-8.6304
X2.0865Y-9.3035
X2.1142Y-4.9311
X2.124Y-5.2648
X2.1499Y-8.8644
X2.1515Y-9.037
X2.1739Y-2.5124
X2.1739Y-2.5596
X2.1746Y-2.9601
X2.1746Y-3.0074
X2.1846Y-8.9945
X2.2039Y-3.3209
X2.2113Y-8.585
X2.2211Y-2.5124
X2.2211Y-2.5596
X2.2219Y-2.9601
X2.2219Y-3.0074
X2.24Y-4.875
X2.2589Y-5.0433
X2.265Y-4.835
X2.29Y-3.785
X2.29Y-4.875
X2.315Y-4.47
X2.315Y-4.79
X2.315Y-4.835
X2.325Y-5.165
X2.34Y-4.875
X2.347Y-3.24
X2.35Y-3.505
X2.3563Y-3.4596
X2.36Y-3.79
X2.37Y-5.115
X2.37Y-5.165
X2.3941Y-3.3904
X2.3976Y-3.3409
X2.4Y-3.51
X2.412Y-3.942
X2.413Y-3.201
X2.415Y-4.455
X2.415Y-5.115
X2.415Y-5.165
X2.43Y-4.855
X2.455Y-3.705
X2.46Y-3.795
X2.4636Y-4.249
X2.495Y-3.705
X2.5019Y-8.8331
X2.51Y-3.765
X2.52Y-4.81
X2.52Y-4.87
X2.52Y-4.93
X2.53Y-4.655
X2.5344Y-4.7165
X2.5452Y-8.9295
X2.561Y-3.971
X2.5906Y-4.0709
X2.6073Y-4.3947
X2.6203Y-3.4764
X2.622Y-3.3012
X2.622Y-3.4134
X2.625Y-2.7
X2.6319Y-9.0214
X2.633Y-4.035
X2.6535Y-8.9236
X2.66Y-4.099
X2.6653Y-9.1217
X2.6653Y-9.1618
X2.669Y-3.9975
X2.6917Y-4.4557
X2.7159Y-9.1944
X2.7199Y-8.5984
X2.7409Y-8.6944
X2.748Y-3.315
X2.805Y-5.27
X2.8059Y-8.8594
X2.8066Y-3.2685
X2.807Y-9.0075
X2.81Y-4.04
X2.8139Y-9.2624
X2.8358Y-8.9614
X2.8359Y-3.2393
X2.85Y-3.47
X2.85Y-4.08
X2.855Y-5.16
X2.868Y-8.8902
X2.8865Y-9.0819
X2.8927Y-3.3179
X2.8939Y-9.1404
X2.8939Y-9.2004
X2.91Y-4.025
X2.92Y-4.81
X2.92Y-4.87
X2.92Y-4.93
X2.96Y-3.7285
X2.96Y-7.8
X3.03Y-3.485
X3.0492Y-3.3199
X3.065Y-3.465
X3.0852Y-3.6352
X3.09Y-4.435
X3.19Y-3.875
X3.23Y-4.295
X3.23Y-7.775
X3.24Y-4.47
X3.26Y-4.2665
X3.2638Y-4.2047
X3.29Y-3.335
X3.32Y-3.605
X3.3268Y-3.5118
X3.3346Y-3.4528
X3.3602Y-4.4114
X3.3819Y-3.9252
X3.437Y-3.6644
X3.445Y-3.875
X3.5Y-2.7
X3.5025Y-4.3075
X3.5551Y-3.4587
X3.565Y-3.805
X3.595Y-3.41
X3.6378Y-4.0354
X3.685Y-4.305
X3.83Y-4.13
X3.83Y-7.8
X3.8615Y-4.175
X3.875Y-4.07
X3.92Y-4.03
X3.937Y-4.2933
X3.9429Y-4.4055
X4.06Y-4.35
X4.09Y-4.83
X4.115Y-4.175
X4.115Y-4.225
X4.18Y-4.625
X4.195Y-4.545
X4.2008Y-3.9803
X4.305Y-4.875
X4.33Y-4.81
X4.375Y-2.7
X4.375Y-4.78
X4.4498Y-4.7028
X4.485Y-4.59
X4.715Y-7.8
X4.7421Y-4.9626
X6.2161Y-3.0354
X6.2244Y-9.0443
X6.2255Y-3.705
X6.226Y-2.036
X6.2264Y-7.0362
X6.2264Y-8.0358
X6.2276Y-4.0354
X6.2283Y-5.0354
X6.2299Y-6.0358
X6.2305Y-2.71
X6.2305Y-4.705
X6.2305Y-5.705
X6.2305Y-6.71
X6.2405Y-1.745
X6.2405Y-7.705
X6.2953Y-2.5906
X6.3055Y-4.5906
X6.3071Y-6.5902
X6.3071Y-7.5906
X6.3071Y-8.5896
X6.3091Y-3.5909
X6.348Y-5.5898
X6.366Y-1.526
X6.4105Y-3.035
X6.4105Y-8.035
X6.4146Y-5.8043
X6.4146Y-6.8028
X6.415Y-4.8102
X6.4154Y-2.8173
X6.4154Y-8.7795
X6.4155Y-2.035
X6.4155Y-5.035
X6.4155Y-7.03
X6.4155Y-9.036
X6.4157Y-7.798
X6.416Y-1.816
X6.4161Y-3.8114
X6.4205Y-4.035
X6.4205Y-6.04
X6.5505Y-8.71
X6.5605Y-7.79
X6.5831Y-8.585
X6.5855Y-1.845
X6.5855Y-2.83
X6.5905Y-2.675
X6.5905Y-3.675
X6.5905Y-3.83
X6.5905Y-4.675
X6.5905Y-4.82
X6.5905Y-6.675
X6.5905Y-6.825
X6.5955Y-1.675
X6.5955Y-5.83
X6.5955Y-7.68
X6.6305Y-5.685
X6.7037Y-8.6407
X6.7075Y-7.6256
X6.7114Y-3.6205
X6.7114Y-4.626
X6.7126Y-6.6252
X6.722Y-1.536
X6.7232Y-2.6248
X6.7505Y-2.285
X6.7512Y-5.626
X6.7555Y-3.29
X6.7605Y-4.29
X6.7605Y-5.28
X6.7655Y-6.28
X6.7755Y-7.27
X6.8155Y-5.205
X6.8155Y-6.215
X6.8155Y-7.225
X6.8205Y-4.2
X6.8255Y-3.175
X6.8305Y-2.17
X7.2181Y-3.0354
X7.222Y-2.034
X7.2224Y-9.0453
X7.2252Y-6.035
X7.2252Y-7.035
X7.2272Y-4.035
X7.228Y-5.035
X7.228Y-8.035
X7.302Y-2.5898
X7.3028Y-3.5898
X7.3039Y-4.5909
X7.3071Y-6.5902
X7.3071Y-8.5906
X7.3079Y-7.5902
X7.3083Y-5.5894
X7.356Y-1.526
X7.4083Y-7.7764
X7.4091Y-4.7713
X7.4105Y-6.04
X7.413Y-2.7713
X7.4146Y-3.7693
X7.415Y-6.7724
X7.4155Y-2.035
X7.4155Y-3.035
X7.4155Y-4.035
X7.4155Y-8.04
X7.4155Y-9.04
X7.4157Y-5.7728
X7.416Y-1.772
X7.4163Y-8.7736
X7.4205Y-5.035
X7.4205Y-7.03
X7.556Y-1.804
X7.5855Y-3.675
X7.5855Y-8.585
X7.5905Y-2.675
X7.5905Y-4.675
X7.5905Y-5.68
X7.5905Y-6.675
X7.5905Y-7.68
X7.5955Y-1.675
X7.704Y-1.546
X7.7091Y-5.6244
X7.7094Y-3.6197
X7.7094Y-4.6197
X7.7096Y-8.6398
X7.7126Y-2.6248
X7.7138Y-7.6256
X7.7142Y-6.6256
X8.218Y-2.036
X8.2236Y-5.0354
X8.2248Y-4.0354
X8.2264Y-9.0453
X8.2272Y-6.035
X8.2313Y-8.0354
X8.2343Y-7.0354
X8.2409Y-3.0354
X8.3024Y-3.5894
X8.3055Y-4.5898
X8.3071Y-6.5906
X8.3075Y-5.5858
X8.3081Y-7.5915
X8.3081Y-8.5915
X8.3217Y-2.5902
X8.356Y-1.532
X8.41Y-1.772
X8.4134Y-5.7748
X8.4138Y-4.7748
X8.4142Y-6.7713
X8.4154Y-7.7756
X8.4154Y-8.7717
X8.4155Y-2.035
X8.4155Y-4.035
X8.4155Y-5.035
X8.4157Y-3.7713
X8.4205Y-6.04
X8.4205Y-7.03
X8.4205Y-8.04
X8.4205Y-9.04
X8.4335Y-2.7705
X8.4355Y-3.035
X8.5855Y-8.585
X8.5905Y-1.675
X8.5905Y-4.675
X8.5905Y-6.675
X8.5905Y-7.68
X8.5955Y-3.675
X8.5955Y-5.675
X8.6105Y-2.675
X8.698Y-1.552
X8.7094Y-4.6201
X8.7096Y-8.6407
X8.7126Y-7.626
X8.7142Y-3.6201
X8.7161Y-5.6154
X8.7343Y-2.6256
X9.2234Y-8.0344
X9.2234Y-9.0443
X9.224Y-2.036
X9.2264Y-5.035
X9.2295Y-4.0346
X9.2307Y-3.0354
X9.2319Y-7.035
X9.235Y-6.0358
X9.3008Y-2.5902
X9.3043Y-3.5906
X9.3067Y-5.5898
X9.3071Y-7.5896
X9.3079Y-6.5902
X9.3081Y-8.5876
X9.3083Y-4.5898
X9.316Y-1.544
X9.3555Y-4.415
X9.411Y-2.7705
X9.411Y-3.7701
X9.412Y-1.77
X9.4146Y-6.7701
X9.4154Y-4.7728
X9.4154Y-7.7717
X9.4154Y-8.7717
X9.4155Y-2.035
X9.4155Y-3.035
X9.4155Y-4.035
X9.4155Y-5.035
X9.4155Y-9.035
X9.4157Y-5.7752
X9.4205Y-6.04
X9.4205Y-7.03
X9.4205Y-8.04
X9.4355Y-2.425
X9.5755Y-8.585
X9.5905Y-2.675
X9.5905Y-3.675
X9.5905Y-4.675
X9.5905Y-5.675
X9.5905Y-6.675
X9.5905Y-7.68
X9.5953Y-6.0657
X9.5961Y-4.065
X9.6004Y-8.0699
X9.6058Y-1.675
X9.62Y-2.125
X9.63Y-3.3
X9.63Y-3.36
X9.63Y-3.418
X9.64Y-3.975
X9.64Y-7.03
X9.64Y-7.09
X9.64Y-7.148
X9.65Y-5.98
X9.6506Y-7.6831
X9.6855Y-2.37
X9.6855Y-4.365
X9.6905Y-6.365
X9.6905Y-8.21
X9.6939Y-8.64
X9.711Y-3.6512
X9.715Y-2.0
X9.72Y-8.01
X9.7217Y-5.622
X9.7236Y-4.6256
X9.7283Y-6.6252
X9.7319Y-2.6252
X9.7505Y-1.755
X9.7605Y-1.815
X9.7905Y-4.0
X9.7933Y-1.9626
X9.7955Y-6.03
X9.7974Y-8.035
X9.8105Y-6.305
X9.8105Y-7.73
X9.8105Y-7.895
X9.8241Y-5.9856
X9.8255Y-1.94
X9.8255Y-3.785
X9.8255Y-3.895
X9.8267Y-3.9845
X9.8355Y-5.71
X9.8355Y-5.835
X9.8355Y-8.005
X9.8455Y-2.295
X9.8505Y-4.195
X9.8505Y-4.3
X9.8505Y-8.21
X9.87Y-3.3
X9.87Y-3.36
X9.87Y-3.419
X9.942Y-7.03
X9.942Y-7.09
X9.942Y-7.147
X10.1024Y-2.3626
X10.1055Y-6.3634
X10.1079Y-4.3642
X10.1083Y-8.3622
X10.1155Y-2.565
X10.1191Y-8.56
X10.1193Y-6.5626
X10.1205Y-3.5772
X10.1211Y-7.5896
X10.1213Y-5.5898
X10.1224Y-4.5594
X10.154Y-1.61
X10.1555Y-3.71
X10.1555Y-3.9
X10.2055Y-7.895
X10.216Y-2.034
X10.2205Y-1.605
X10.2234Y-8.6211
X10.2254Y-6.6142
X10.2255Y-3.605
X10.2255Y-4.615
X10.2255Y-7.62
X10.2293Y-8.0354
X10.2299Y-4.035
X10.2303Y-9.0453
X10.2305Y-5.62
X10.2307Y-6.0354
X10.2331Y-5.035
X10.2355Y-2.605
X10.2366Y-7.035
X10.237Y-3.0339
X10.2405Y-7.7
X10.2605Y-1.755
X10.2605Y-1.82
X10.2605Y-5.71
X10.2605Y-5.83
X10.4094Y-7.7726
X10.4105Y-1.775
X10.4126Y-6.772
X10.4138Y-4.7752
X10.4142Y-5.7732
X10.4154Y-3.7709
X10.4155Y-4.035
X10.4155Y-9.035
X10.4163Y-8.7697
X10.4169Y-2.7701
X10.4205Y-2.035
X10.4205Y-3.035
X10.4205Y-5.035
X10.4205Y-6.04
X10.4205Y-7.03
X10.4205Y-8.04
X10.5187Y-7.5906
X10.5224Y-3.5898
X10.5236Y-8.5906
X10.524Y-4.5906
X10.524Y-5.5898
X10.5244Y-6.5906
X10.5264Y-2.5906
X10.536Y-1.592
X10.55Y-1.804
X11.116Y-1.55
X11.1177Y-2.5555
X11.1185Y-4.5602
X11.1185Y-5.5547
X11.1189Y-6.5598
X11.1191Y-7.5551
X11.1197Y-3.5555
X11.1201Y-8.561
X11.2205Y-1.605
X11.2234Y-8.0354
X11.2234Y-9.0453
X11.2244Y-6.035
X11.2255Y-3.605
X11.2255Y-4.615
X11.226Y-2.036
X11.2276Y-3.035
X11.2293Y-6.6171
X11.2293Y-7.6161
X11.2293Y-8.6161
X11.2305Y-2.605
X11.2305Y-5.62
X11.2323Y-5.0354
X11.2346Y-7.0354
X11.2358Y-4.035
X11.4087Y-3.7709
X11.4102Y-2.7681
X11.414Y-1.77
X11.4144Y-7.7746
X11.4146Y-5.774
X11.4146Y-6.7772
X11.415Y-4.776
X11.4154Y-8.7697
X11.4155Y-2.035
X11.4155Y-4.035
X11.4155Y-6.045
X11.4155Y-8.04
X11.4155Y-9.035
X11.4205Y-3.035
X11.4205Y-5.035
X11.4205Y-7.03
X11.5228Y-4.5909
X11.5236Y-7.5925
X11.5236Y-8.5925
X11.524Y-2.5909
X11.5244Y-5.5894
X11.5248Y-6.5913
X11.5252Y-3.5913
X11.526Y-1.59
X11.554Y-1.806
X12.1142Y-7.5551
X12.1165Y-6.561
X12.1181Y-8.562
X12.1197Y-2.5559
X12.1201Y-5.5547
X12.1209Y-4.5602
X12.122Y-1.55
X12.1402Y-3.5657
X12.2173Y-3.0346
X12.2205Y-1.605
X12.2215Y-8.0354
X12.2234Y-7.6161
X12.2255Y-4.615
X12.2255Y-5.62
X12.2274Y-6.6211
X12.2293Y-9.0453
X12.2299Y-6.0354
X12.23Y-2.036
X12.2303Y-8.6201
X12.2305Y-2.605
X12.2315Y-7.035
X12.2339Y-5.0354
X12.2343Y-4.035
X12.2405Y-3.615
X12.408Y-1.77
X12.4094Y-7.7717
X12.4105Y-8.04
X12.4134Y-8.7697
X12.4142Y-6.7713
X12.4146Y-4.7744
X12.415Y-2.7681
X12.415Y-5.7736
X12.4155Y-2.035
X12.4155Y-3.035
X12.4155Y-7.03
X12.4155Y-9.035
X12.4157Y-3.7709
X12.4205Y-4.035
X12.4205Y-5.035
X12.4205Y-6.045
X12.5167Y-7.5925
X12.5226Y-8.5915
X12.5228Y-5.5913
X12.5232Y-4.5902
X12.524Y-2.5906
X12.524Y-6.5906
X12.526Y-1.592
X12.5417Y-3.5906
X12.558Y-1.8
X13.1083Y-7.56
X13.1087Y-2.5555
X13.1161Y-6.5602
X13.1181Y-3.5642
X13.12Y-1.55
X13.1201Y-8.56
X13.1224Y-5.5551
X13.1236Y-4.5602
X13.2155Y-2.605
X13.2205Y-1.605
X13.224Y-7.035
X13.2254Y-6.626
X13.2254Y-8.0354
X13.2254Y-8.622
X13.2255Y-3.615
X13.2255Y-4.615
X13.2255Y-5.62
X13.2256Y-3.035
X13.226Y-2.036
X13.2274Y-9.0453
X13.2299Y-6.035
X13.2303Y-7.6181
X13.2323Y-5.0358
X13.235Y-4.035
X13.4105Y-9.035
X13.414Y-1.772
X13.4142Y-6.7748
X13.4144Y-7.7717
X13.4146Y-2.7681
X13.415Y-3.7701
X13.4154Y-4.774
X13.4154Y-5.7697
X13.4155Y-2.035
X13.4155Y-3.035
X13.4155Y-5.035
X13.4155Y-7.03
X13.4155Y-8.04
X13.4163Y-8.7726
X13.4205Y-6.045
X13.425Y-4.035
X13.5063Y-2.5909
X13.5205Y-3.5913
X13.5232Y-4.5913
X13.5232Y-6.5902
X13.5246Y-7.5896
X13.5252Y-5.5906
X13.5404Y-8.5906
X13.5755Y-6.705
X13.5805Y-5.705
X13.5855Y-7.705
X13.5905Y-2.695
X13.5905Y-3.7
X13.5905Y-4.69
X13.5955Y-8.705
X13.5955Y-8.895
X13.6955Y-7.705
X13.7255Y-6.705
X13.7305Y-2.695
X13.7305Y-3.7
X13.7355Y-4.685
X13.7355Y-5.705
T3
X3.0441Y-8.8782
X3.0441Y-8.9782
X3.0441Y-9.0782
X3.0441Y-9.1782
X4.4079Y-1.3488
X4.4079Y-1.4488
X4.4079Y-1.5488
X4.4079Y-1.6488
X4.6174Y-5.0673
X4.6174Y-5.1673
X4.6174Y-5.2673
X4.6174Y-5.3673
T4
X2.5539Y-2.3016
X2.5539Y-2.4984
X2.5539Y-8.0016
X2.5539Y-8.1984
X3.0461Y-2.3016
X3.0461Y-2.4984
X3.0461Y-8.0016
X3.0461Y-8.1984
X3.4289Y-2.3016
X3.4289Y-2.4984
X3.4339Y-8.0016
X3.4339Y-8.1984
X3.9211Y-2.3016
X3.9211Y-2.4984
X3.9261Y-8.0016
X3.9261Y-8.1984
X4.3039Y-2.3016
X4.3039Y-2.4984
X4.3089Y-8.0016
X4.3089Y-8.1984
X4.7961Y-2.3016
X4.7961Y-2.4984
X4.8011Y-8.0016
X4.8011Y-8.1984
T5
X2.2414Y-5.62
X2.2414Y-7.05
X2.3228Y-1.0
X2.3228Y-9.5276
X4.9186Y-5.62
X4.9186Y-7.05
X8.5Y-1.0039
X8.5Y-9.5276
X14.1732Y-1.0039
X14.1732Y-9.5276
T2
G00X2.1083Y-3.1797
M15
G01X2.0768Y-3.1797
M16
G05
G00X2.1083Y-3.5203
M15
G01X2.0768Y-3.5203
M16
G05
G00X2.2825Y-3.1797
M15
G01X2.2392Y-3.1797
M16
G05
G00X2.2825Y-3.5203
M15
G01X2.2392Y-3.5203
M16
G05
T0
M30
