M48
; DRILL file {KiCad (6.0.4-0)} date Saturday, October 22, 2022 at 12:34:04 PM
; FORMAT={-:-/ absolute / inch / decimal}
; #@! TF.CreationDate,2022-10-22T12:34:04-04:00
; #@! TF.GenerationSoftware,Kicad,Pcbnew,(6.0.4-0)
; #@! TF.FileFunction,NonPlated,1,4,NPTH
FMAT,2
INCH
; #@! TA.AperFunction,NonPlated,NPTH,ComponentDrill
T1C0.0236
; #@! TA.AperFunction,NonPlated,NPTH,ComponentDrill
T2C0.0390
; #@! TA.AperFunction,NonPlated,NPTH,ComponentDrill
T3C0.0709
; #@! TA.AperFunction,NonPlated,NPTH,ComponentDrill
T4C0.1063
%
G90
G05
T1
X2.2382Y-3.2362
T2
X3.4Y-3.36
X3.44Y-3.56
X3.48Y-3.36
T3
X2.8Y-2.2228
X2.8Y-2.5772
X2.8Y-7.9228
X2.8Y-8.2772
X3.675Y-2.2228
X3.675Y-2.5772
X3.68Y-7.9228
X3.68Y-8.2772
X4.55Y-2.2228
X4.55Y-2.5772
X4.555Y-7.9228
X4.555Y-8.2772
T4
X5.9155Y-1.25
X5.9155Y-5.25
X5.9155Y-9.25
X9.9155Y-1.25
X9.9155Y-5.25
X9.9155Y-9.25
X13.9155Y-1.25
X13.9155Y-5.25
X13.9155Y-9.25
T1
G00X2.2382Y-3.4569
M15
G01X2.2382Y-3.4707
M16
G05
T0
M30
