%TF.GenerationSoftware,KiCad,Pcbnew,(6.0.4-0)*%
%TF.CreationDate,2022-10-08T22:35:32-04:00*%
%TF.ProjectId,chess-board-iot,63686573-732d-4626-9f61-72642d696f74,A*%
%TF.SameCoordinates,Original*%
%TF.FileFunction,Legend,Bot*%
%TF.FilePolarity,Positive*%
%FSLAX46Y46*%
G04 Gerber Fmt 4.6, Leading zero omitted, Abs format (unit mm)*
G04 Created by KiCad (PCBNEW (6.0.4-0)) date 2022-10-08 22:35:32*
%MOMM*%
%LPD*%
G01*
G04 APERTURE LIST*
G04 Aperture macros list*
%AMRoundRect*
0 Rectangle with rounded corners*
0 $1 Rounding radius*
0 $2 $3 $4 $5 $6 $7 $8 $9 X,Y pos of 4 corners*
0 Add a 4 corners polygon primitive as box body*
4,1,4,$2,$3,$4,$5,$6,$7,$8,$9,$2,$3,0*
0 Add four circle primitives for the rounded corners*
1,1,$1+$1,$2,$3*
1,1,$1+$1,$4,$5*
1,1,$1+$1,$6,$7*
1,1,$1+$1,$8,$9*
0 Add four rect primitives between the rounded corners*
20,1,$1+$1,$2,$3,$4,$5,0*
20,1,$1+$1,$4,$5,$6,$7,0*
20,1,$1+$1,$6,$7,$8,$9,0*
20,1,$1+$1,$8,$9,$2,$3,0*%
G04 Aperture macros list end*
%ADD10C,5.000000*%
%ADD11R,1.700000X1.700000*%
%ADD12O,1.700000X1.700000*%
%ADD13C,0.600000*%
%ADD14O,0.600000X0.950000*%
%ADD15O,2.300000X1.200000*%
%ADD16O,2.000000X1.200000*%
%ADD17O,3.048000X1.850000*%
%ADD18C,2.700000*%
%ADD19C,0.991000*%
%ADD20RoundRect,0.750000X-0.750000X0.750000X-0.750000X-0.750000X0.750000X-0.750000X0.750000X0.750000X0*%
%ADD21C,3.000000*%
%ADD22C,0.800000*%
G04 APERTURE END LIST*
%LPC*%
D10*
%TO.C,J105*%
X124932000Y-179069000D03*
X124932000Y-142749000D03*
X56932000Y-142749000D03*
X56932000Y-179069000D03*
D11*
X117282000Y-128709000D03*
D12*
X117282000Y-131249000D03*
X117282000Y-133789000D03*
X117282000Y-136329000D03*
%TD*%
D13*
%TO.C,J101*%
X56850000Y-82200000D03*
D14*
X56850000Y-87980000D03*
D15*
X57425000Y-80765000D03*
D16*
X53150000Y-89415000D03*
D15*
X57425000Y-89415000D03*
D16*
X53150000Y-80765000D03*
%TD*%
D17*
%TO.C,SW107*%
X64870000Y-63460000D03*
X77370000Y-63460000D03*
X77370000Y-58460000D03*
X64870000Y-58460000D03*
%TD*%
D18*
%TO.C,H104*%
X353454580Y-31750000D03*
%TD*%
D19*
%TO.C,J104*%
X87376000Y-90424000D03*
X88391000Y-85344000D03*
X86361000Y-85344000D03*
%TD*%
D11*
%TO.C,OLED102*%
X111961000Y-34260000D03*
D12*
X111961000Y-36800000D03*
X111961000Y-39340000D03*
X111961000Y-41880000D03*
%TD*%
D18*
%TO.C,H109*%
X251854580Y-133350000D03*
%TD*%
D20*
%TO.C,J102*%
X62134000Y-43104800D03*
D21*
X62134000Y-38404800D03*
X62134000Y-33704800D03*
%TD*%
D18*
%TO.C,H108*%
X353454580Y-234950000D03*
%TD*%
%TO.C,H101*%
X251854580Y-31750000D03*
%TD*%
%TO.C,H107*%
X150254580Y-31750000D03*
%TD*%
D17*
%TO.C,SW108*%
X109320000Y-63460000D03*
X121820000Y-63460000D03*
X121820000Y-58460000D03*
X109320000Y-58460000D03*
%TD*%
%TO.C,SW106*%
X87222000Y-203240000D03*
X99722000Y-203240000D03*
X87222000Y-208240000D03*
X99722000Y-208240000D03*
%TD*%
%TO.C,SW109*%
X87095000Y-63460000D03*
X99595000Y-63460000D03*
X87095000Y-58460000D03*
X99595000Y-58460000D03*
%TD*%
D18*
%TO.C,H106*%
X150254580Y-133350000D03*
%TD*%
D17*
%TO.C,SW104*%
X109447000Y-203240000D03*
X121947000Y-203240000D03*
X121947000Y-208240000D03*
X109447000Y-208240000D03*
%TD*%
D18*
%TO.C,H103*%
X353454580Y-133350000D03*
%TD*%
%TO.C,H105*%
X251854580Y-234950000D03*
%TD*%
D11*
%TO.C,OLED101*%
X77319800Y-233125800D03*
D12*
X77319800Y-230585800D03*
X77319800Y-228045800D03*
X77319800Y-225505800D03*
%TD*%
D18*
%TO.C,H102*%
X150254580Y-234950000D03*
%TD*%
D17*
%TO.C,SW105*%
X77370000Y-203240000D03*
X64870000Y-203240000D03*
X77370000Y-208240000D03*
X64870000Y-208240000D03*
%TD*%
D22*
X55980000Y-84350000D03*
X73360000Y-230270000D03*
X64650000Y-231270000D03*
X55490000Y-232920000D03*
X67780000Y-236000000D03*
X54790000Y-234010000D03*
X61341000Y-113157000D03*
X59944000Y-96266000D03*
X224041580Y-96520000D03*
X106172000Y-117475000D03*
X230264580Y-191516000D03*
X280556580Y-141478000D03*
X279413580Y-198120000D03*
X323088000Y-89789000D03*
X305321580Y-191770000D03*
X306083580Y-96520000D03*
X233439580Y-39280500D03*
X179464580Y-38989000D03*
X264427580Y-45085000D03*
X253378580Y-66421000D03*
X234455580Y-218694000D03*
X306337580Y-198247000D03*
X203848580Y-116586000D03*
X280429580Y-167005000D03*
X203848580Y-91186000D03*
X323101580Y-65786000D03*
X280556580Y-96520000D03*
X280556580Y-121920000D03*
X72390000Y-88138000D03*
X224041580Y-45720000D03*
X106553000Y-115443000D03*
X250203580Y-109220000D03*
X256680580Y-115951000D03*
X250965580Y-71120000D03*
X173876580Y-198247000D03*
X249441580Y-194183000D03*
X330721580Y-71120000D03*
X272174580Y-192532000D03*
X62492799Y-85860799D03*
X323101580Y-142113000D03*
X178321580Y-116586000D03*
X272174580Y-116713000D03*
X297955580Y-167386000D03*
X299733580Y-218440000D03*
X323101580Y-116586000D03*
X272047580Y-167259000D03*
X272174580Y-142113000D03*
X250965580Y-121920000D03*
X198387580Y-147447000D03*
X282461580Y-215773000D03*
X256553580Y-91694000D03*
X224041580Y-147447000D03*
X332118580Y-138430000D03*
X330086580Y-223520000D03*
X82939738Y-107378257D03*
X297828580Y-116586000D03*
X297828580Y-192532000D03*
X306083580Y-121920000D03*
X247028580Y-142875000D03*
X272174580Y-65913000D03*
X178321580Y-65786000D03*
X203975580Y-218313000D03*
X330721580Y-45720000D03*
X224041580Y-172593000D03*
X203848580Y-141859000D03*
X330594580Y-198247000D03*
X249314580Y-167894000D03*
X253251580Y-117475000D03*
X305575580Y-166497000D03*
X230264580Y-141986000D03*
X173749580Y-71120000D03*
X250076580Y-58293000D03*
X330721580Y-96520000D03*
X198387580Y-172720000D03*
X301003580Y-172847000D03*
X279413580Y-223520000D03*
X272288000Y-90297000D03*
X203848580Y-65786000D03*
X254775580Y-172593000D03*
X173876580Y-172466000D03*
X256299580Y-216789000D03*
X322466580Y-167386000D03*
X230264580Y-167386000D03*
X224041580Y-223393000D03*
X256807580Y-142748000D03*
X88963500Y-109410500D03*
X280556580Y-115824000D03*
X306083580Y-45720000D03*
X246859986Y-92169004D03*
X179464580Y-218313000D03*
X323101580Y-40386000D03*
X275349580Y-172593000D03*
X67400378Y-231119622D03*
X230264580Y-116586000D03*
X198387580Y-223393000D03*
X305194580Y-223520000D03*
X173749580Y-45720000D03*
X54610000Y-229616000D03*
X198387580Y-96520000D03*
X230264580Y-91186000D03*
X257061580Y-194183000D03*
X297828580Y-141986000D03*
X67056000Y-89408000D03*
X255664580Y-223520000D03*
X203848580Y-192913000D03*
X308242580Y-215900000D03*
X155842580Y-192151000D03*
X173876580Y-147320000D03*
X280556580Y-147320000D03*
X203975580Y-167259000D03*
X179210580Y-167259000D03*
X224041580Y-198247000D03*
X178321580Y-141986000D03*
X272174580Y-40513000D03*
X224041580Y-71120000D03*
X198387580Y-45720000D03*
X255664580Y-167132000D03*
X330721580Y-121920000D03*
X61290200Y-81305400D03*
X280556580Y-90424000D03*
X306083580Y-71120000D03*
X280302580Y-191770000D03*
X297828580Y-65786000D03*
X322974580Y-192532000D03*
X280556580Y-71120000D03*
X325260580Y-218440000D03*
X297828580Y-40386000D03*
X297828580Y-90551000D03*
X198387580Y-198247000D03*
X330721580Y-147193000D03*
X256934580Y-65151000D03*
X198387580Y-121920000D03*
X255852589Y-40714589D03*
X280556580Y-39624000D03*
X224041580Y-121920000D03*
X250203580Y-208534000D03*
X178448580Y-191643000D03*
X178321580Y-91186000D03*
X203848580Y-38989000D03*
X249187580Y-160147000D03*
X198387580Y-71120000D03*
X173749580Y-121920000D03*
X340995000Y-86995000D03*
X306083580Y-147447000D03*
X61315600Y-122148600D03*
X59690000Y-89027000D03*
X272174580Y-218313000D03*
X280556580Y-65024000D03*
X249441580Y-219456000D03*
X230264580Y-65786000D03*
X330975580Y-172593000D03*
X280556580Y-45720000D03*
X250203580Y-106553000D03*
X83566000Y-89408000D03*
X173749580Y-96520000D03*
X289954580Y-204216000D03*
X61391800Y-47853600D03*
X188481580Y-127889000D03*
X340754580Y-178562000D03*
X239154580Y-127889000D03*
X162827580Y-77089000D03*
X239154580Y-229489000D03*
X213881580Y-153416000D03*
X214262580Y-77089000D03*
X264681580Y-153416000D03*
X239154580Y-51689000D03*
X340754580Y-77089000D03*
X188354580Y-77089000D03*
X289954580Y-229489000D03*
X239281580Y-178562000D03*
X239281580Y-204216000D03*
X213881580Y-229616000D03*
X62788800Y-47853600D03*
X61391800Y-45567600D03*
X340754580Y-51689000D03*
X264681580Y-204216000D03*
X188354580Y-102489000D03*
X87503000Y-98425000D03*
X162954580Y-127889000D03*
X290081580Y-127889000D03*
X340627580Y-229489000D03*
X289954580Y-51689000D03*
X340754580Y-127889000D03*
X163081580Y-153416000D03*
X264681580Y-127889000D03*
X188354580Y-51689000D03*
X162954580Y-229514400D03*
X264681580Y-51689000D03*
X62788800Y-45567600D03*
X162954580Y-178562000D03*
X188481580Y-178562000D03*
X239154580Y-77089000D03*
X315481580Y-102489000D03*
X163081580Y-102489000D03*
X61341000Y-131191000D03*
X60198000Y-129921000D03*
X289954580Y-102489000D03*
X162954580Y-51689000D03*
X315227580Y-204216000D03*
X162827580Y-204089000D03*
X213881580Y-178562000D03*
X188227580Y-153416000D03*
X315354580Y-77089000D03*
X239154580Y-102489000D03*
X213754580Y-102489000D03*
X59055000Y-131191000D03*
X315354580Y-178562000D03*
X264554580Y-229489000D03*
X60198000Y-131191000D03*
X340995000Y-102489000D03*
X61391800Y-46710600D03*
X62788800Y-46710600D03*
X264681580Y-77089000D03*
X315481580Y-153543000D03*
X188354580Y-229616000D03*
X315354580Y-229489000D03*
X239281580Y-153416000D03*
X289954580Y-153543000D03*
X213754580Y-127889000D03*
X213881580Y-204216000D03*
X213754580Y-51689000D03*
X315354580Y-51689000D03*
X188354580Y-204216000D03*
X264681580Y-178562000D03*
X340881580Y-153543000D03*
X264554580Y-102489000D03*
X70307200Y-84328000D03*
X290081580Y-77089000D03*
X290081580Y-178562000D03*
X315481580Y-127889000D03*
X340754580Y-204216000D03*
X61341000Y-129921000D03*
X58166000Y-123825000D03*
X192672580Y-93345000D03*
X244602000Y-86817200D03*
X285128580Y-117221000D03*
X103886000Y-122682000D03*
X167399580Y-93345000D03*
X246888000Y-203454000D03*
X250698000Y-85344000D03*
X167209580Y-218059000D03*
X192799580Y-67945000D03*
X252526800Y-181533800D03*
X167399580Y-169545000D03*
X218326580Y-144145500D03*
X192799580Y-118745000D03*
X259728580Y-117221000D03*
X310909580Y-215900000D03*
X285128580Y-91567000D03*
X335674580Y-66167000D03*
X73320000Y-235140000D03*
X84328000Y-91567000D03*
X239662580Y-61595000D03*
X244856000Y-180086000D03*
X192799580Y-169545000D03*
X74168000Y-123698000D03*
X285509580Y-215900000D03*
X167526580Y-195072000D03*
X167526580Y-42545500D03*
X244348000Y-53975000D03*
X336309580Y-190246000D03*
X260109580Y-216154000D03*
X259982580Y-66167000D03*
X88900000Y-68580000D03*
X259855580Y-142748000D03*
X218199580Y-42545000D03*
X244602000Y-85344000D03*
X54610000Y-231775000D03*
X244856000Y-100965000D03*
X310909580Y-165354000D03*
X218326580Y-93345000D03*
X97282000Y-198120000D03*
X74168000Y-122174000D03*
X310909580Y-91821000D03*
X69621400Y-225298000D03*
X81026000Y-98425000D03*
X252526800Y-178562000D03*
X70129400Y-82762500D03*
X285509580Y-190373000D03*
X218199580Y-118745000D03*
X58801000Y-122809000D03*
X336436580Y-165100000D03*
X285001580Y-40767000D03*
X243599580Y-144145000D03*
X192799580Y-195072000D03*
X259728580Y-193548000D03*
X250698000Y-83820000D03*
X244856000Y-178562000D03*
X335928580Y-117221000D03*
X64262000Y-118237000D03*
X243218580Y-218059000D03*
X57531000Y-122809000D03*
X335801580Y-40767000D03*
X336436580Y-215900000D03*
X259601580Y-40767000D03*
X119761000Y-198120000D03*
X285255580Y-66167000D03*
X66675000Y-68580000D03*
X259728580Y-91567000D03*
X243599580Y-195072000D03*
X335928580Y-91821000D03*
X245110000Y-151892000D03*
X82296000Y-113538000D03*
X192926580Y-42545000D03*
X310655580Y-66167000D03*
X310782580Y-190373000D03*
X167399580Y-67945000D03*
X310401580Y-40767000D03*
X246761000Y-50800000D03*
X64008000Y-122174000D03*
X75184000Y-198120000D03*
X260109580Y-167894000D03*
X310528580Y-117221000D03*
X168415580Y-144399000D03*
X243599580Y-93345000D03*
X59436000Y-123825000D03*
X103124000Y-110490000D03*
X243599580Y-118745000D03*
X252526800Y-180086000D03*
X310528580Y-142748000D03*
X64008000Y-123698000D03*
X192799580Y-144272000D03*
X244602000Y-83820000D03*
X218072580Y-218059000D03*
X243599580Y-169545000D03*
X218707580Y-67945000D03*
X244856000Y-181559200D03*
X192672580Y-218059000D03*
X218199580Y-169545500D03*
X64008000Y-125222000D03*
X335928580Y-142748000D03*
X74168000Y-125222000D03*
X218199580Y-195072000D03*
X250698000Y-86842600D03*
X60960000Y-89154000D03*
X111125000Y-68580000D03*
X243987029Y-42545000D03*
X56896000Y-123825000D03*
X243599580Y-67945000D03*
X285255580Y-142748000D03*
X167399580Y-118745000D03*
X58801000Y-121666000D03*
X285509580Y-168021000D03*
X237630580Y-112141000D03*
X59048800Y-66491000D03*
X60248800Y-67691000D03*
X59613800Y-82296000D03*
X60248800Y-66491000D03*
X59048800Y-67691000D03*
X59670000Y-87820000D03*
X84836000Y-89699500D03*
X85852000Y-101219000D03*
X166383580Y-221234000D03*
X345326580Y-221107000D03*
X158509580Y-195707000D03*
X345326580Y-225933000D03*
X166637580Y-197866000D03*
X249187580Y-196342000D03*
X260109580Y-195580000D03*
X259220580Y-200533000D03*
X249187580Y-200533000D03*
X158255580Y-170434000D03*
X173114580Y-183515000D03*
X347866580Y-195707000D03*
X345072580Y-195707000D03*
X167399580Y-173355000D03*
X172098580Y-184658000D03*
X158255580Y-144907000D03*
X173114580Y-157861000D03*
X344818580Y-170307000D03*
X348628580Y-170307000D03*
X167526580Y-148082000D03*
X171844580Y-159512000D03*
X249822580Y-145034000D03*
X260617580Y-145034000D03*
X260617580Y-148082000D03*
X249822580Y-148209000D03*
X348882580Y-144907000D03*
X173114580Y-132207000D03*
X158255580Y-119507000D03*
X344945580Y-144907000D03*
X167399580Y-122428000D03*
X171717580Y-134112000D03*
X158128580Y-94107000D03*
X345199580Y-119126000D03*
X348882580Y-118999000D03*
X173241580Y-106680000D03*
X167399580Y-97282000D03*
X171717580Y-108966000D03*
X257950580Y-94234000D03*
X249568580Y-96139000D03*
X249568580Y-98933000D03*
X257950580Y-99060000D03*
X158255580Y-68834000D03*
X345199580Y-93980000D03*
X348755580Y-93980000D03*
X173368580Y-80645000D03*
X167272580Y-71882000D03*
X171590580Y-83566000D03*
X348755580Y-68453000D03*
X345199580Y-68453000D03*
X158509580Y-44323000D03*
X173495580Y-55118000D03*
X171463580Y-58039000D03*
X167272580Y-46863000D03*
X247663580Y-44577000D03*
X260617580Y-44577000D03*
X247917580Y-46101000D03*
X260617580Y-46228000D03*
X98081500Y-106045000D03*
X97282000Y-104902000D03*
X98425000Y-103378000D03*
X99568000Y-102362000D03*
X78363299Y-92333299D03*
X77470000Y-83820000D03*
X83566000Y-84709000D03*
X75184000Y-94704500D03*
X63754000Y-95631000D03*
X63373000Y-94107000D03*
X77851000Y-88011000D03*
X90297000Y-87884000D03*
X91313000Y-86614000D03*
X62357000Y-94107000D03*
X76962000Y-88519000D03*
X62484000Y-96393000D03*
X72517000Y-131064000D03*
X72390000Y-103632000D03*
X246139580Y-208534000D03*
X246012580Y-110871000D03*
X113919000Y-116586000D03*
X246012580Y-60198000D03*
X246139580Y-161671000D03*
X65049400Y-100863400D03*
X82042000Y-109093000D03*
X71374000Y-102616000D03*
X71247000Y-133858000D03*
X61264800Y-100126800D03*
X82804000Y-108368500D03*
X93599000Y-109347000D03*
X73914000Y-102235000D03*
X72030920Y-82277512D03*
X60900000Y-84860000D03*
X71288456Y-83019976D03*
X60810500Y-86115000D03*
X248806580Y-153162000D03*
X248855080Y-204089000D03*
X248679580Y-101600000D03*
X248750207Y-49849821D03*
X104521000Y-107315000D03*
X249531080Y-152034942D03*
X249598267Y-101206277D03*
X249822580Y-203327000D03*
X249568580Y-49276000D03*
X104521000Y-106045000D03*
X66852800Y-233603800D03*
X68368400Y-113174000D03*
X109347000Y-123825000D03*
X82042000Y-197485000D03*
X109982000Y-122174000D03*
X111125000Y-121412000D03*
X71272400Y-229489000D03*
X66878200Y-102489000D03*
X65938400Y-103352600D03*
X71577200Y-233045000D03*
X72030000Y-232080000D03*
X67564000Y-104114600D03*
X67792600Y-101537100D03*
X72059800Y-225298000D03*
X60229600Y-56318000D03*
X60229600Y-55118000D03*
X68300600Y-84810600D03*
X59029600Y-56318000D03*
X59029600Y-55118000D03*
M02*
