M48
; DRILL file {KiCad (6.0.4-0)} date Saturday, October 08, 2022 at 10:35:33 PM
; FORMAT={-:-/ absolute / inch / decimal}
; #@! TF.CreationDate,2022-10-08T22:35:33-04:00
; #@! TF.GenerationSoftware,Kicad,Pcbnew,(6.0.4-0)
; #@! TF.FileFunction,Plated,1,4,PTH
FMAT,2
INCH
; #@! TA.AperFunction,Plated,PTH,ViaDrill
T1C0.0157
; #@! TA.AperFunction,Plated,PTH,ComponentDrill
T2C0.0236
; #@! TA.AperFunction,Plated,PTH,ComponentDrill
T3C0.0394
; #@! TA.AperFunction,Plated,PTH,ComponentDrill
T4C0.0472
; #@! TA.AperFunction,Plated,PTH,ComponentDrill
T5C0.0591
; #@! TA.AperFunction,Plated,PTH,ComponentDrill
T6C0.1260
%
G90
G05
T1
X2.15Y-9.04
X2.15Y-9.125
X2.1571Y-9.213
X2.1846Y-9.1701
X2.2039Y-3.3209
X2.24Y-4.875
X2.265Y-4.835
X2.29Y-4.875
X2.315Y-4.79
X2.315Y-4.835
X2.324Y-2.17
X2.324Y-2.2172
X2.3248Y-2.6178
X2.3248Y-2.665
X2.325Y-5.165
X2.34Y-4.875
X2.347Y-3.24
X2.3492Y-3.4575
X2.35Y-3.505
X2.36Y-3.79
X2.37Y-5.115
X2.37Y-5.165
X2.3712Y-2.17
X2.3712Y-2.2172
X2.372Y-2.6178
X2.372Y-2.665
X2.3941Y-3.3904
X2.3976Y-3.3409
X2.4Y-3.51
X2.412Y-3.942
X2.413Y-3.201
X2.414Y-4.809
X2.415Y-4.455
X2.415Y-5.115
X2.415Y-5.165
X2.417Y-1.794
X2.417Y-1.839
X2.417Y-1.884
X2.455Y-3.705
X2.46Y-3.795
X2.4603Y-3.3803
X2.472Y-1.794
X2.472Y-1.839
X2.472Y-1.884
X2.495Y-3.705
X2.51Y-3.765
X2.52Y-4.81
X2.52Y-4.87
X2.52Y-4.93
X2.53Y-4.655
X2.5453Y-9.1051
X2.561Y-3.971
X2.596Y-4.069
X2.625Y-2.7
X2.632Y-9.197
X2.633Y-4.035
X2.64Y-3.52
X2.6536Y-9.0992
X2.66Y-4.099
X2.6685Y-9.2913
X2.669Y-3.9975
X2.689Y-3.339
X2.6917Y-4.4557
X2.741Y-8.87
X2.761Y-3.2584
X2.768Y-3.32
X2.805Y-5.27
X2.806Y-9.035
X2.8066Y-3.2685
X2.81Y-4.04
X2.818Y-9.175
X2.8358Y-9.137
X2.8359Y-3.2393
X2.837Y-8.87
X2.85Y-3.47
X2.85Y-4.08
X2.855Y-5.16
X2.8866Y-9.2575
X2.8882Y-9.0657
X2.91Y-4.025
X2.92Y-4.81
X2.92Y-4.87
X2.92Y-4.93
X2.96Y-3.7285
X2.96Y-7.8
X3.03Y-3.485
X3.05Y-3.3
X3.065Y-3.465
X3.0852Y-3.6352
X3.19Y-3.875
X3.23Y-4.295
X3.23Y-7.775
X3.24Y-4.47
X3.26Y-4.2665
X3.2653Y-4.2275
X3.29Y-3.335
X3.29Y-3.52
X3.32Y-3.605
X3.34Y-3.5315
X3.38Y-3.985
X3.445Y-3.875
X3.5Y-2.7
X3.5025Y-4.3075
X3.555Y-3.46
X3.595Y-3.41
X3.685Y-4.305
X3.83Y-4.13
X3.83Y-7.8
X3.8615Y-4.175
X3.875Y-4.07
X3.92Y-4.03
X4.06Y-4.35
X4.09Y-4.83
X4.115Y-4.175
X4.115Y-4.225
X4.18Y-4.625
X4.195Y-4.545
X4.305Y-4.875
X4.33Y-4.81
X4.375Y-2.7
X4.375Y-4.78
X4.485Y-4.59
X4.715Y-7.8
X6.1355Y-7.565
X6.2255Y-3.705
X6.2305Y-2.71
X6.2305Y-4.705
X6.2305Y-5.705
X6.2305Y-6.71
X6.2405Y-1.745
X6.2405Y-7.705
X6.4105Y-3.035
X6.4105Y-8.035
X6.4155Y-2.035
X6.4155Y-5.035
X6.4155Y-7.03
X6.4155Y-9.036
X6.4205Y-4.035
X6.4205Y-6.04
X6.5505Y-8.71
X6.5605Y-7.79
X6.5831Y-8.585
X6.5855Y-1.845
X6.5855Y-2.83
X6.5905Y-2.675
X6.5905Y-3.675
X6.5905Y-3.83
X6.5905Y-4.675
X6.5905Y-4.82
X6.5905Y-6.675
X6.5905Y-6.825
X6.5955Y-1.675
X6.5955Y-5.83
X6.5955Y-7.68
X6.6305Y-5.685
X6.7505Y-2.285
X6.7555Y-3.29
X6.7605Y-4.29
X6.7605Y-5.28
X6.7655Y-6.28
X6.7755Y-7.27
X6.8155Y-5.205
X6.8155Y-6.215
X6.8155Y-7.225
X6.8205Y-4.2
X6.8255Y-3.175
X6.8305Y-2.17
X6.8405Y-1.8
X6.8405Y-2.8
X6.8405Y-3.8
X6.8405Y-4.8
X6.8455Y-5.8
X6.8455Y-6.79
X6.8455Y-7.805
X7.0205Y-2.59
X7.0205Y-3.59
X7.0205Y-4.59
X7.0205Y-5.59
X7.0255Y-7.545
X7.0555Y-6.585
X7.0655Y-1.535
X7.0655Y-8.595
X7.4105Y-6.04
X7.4155Y-2.035
X7.4155Y-3.035
X7.4155Y-4.035
X7.4155Y-8.04
X7.4155Y-9.04
X7.4205Y-5.035
X7.4205Y-7.03
X7.5855Y-3.675
X7.5855Y-8.585
X7.5905Y-2.675
X7.5905Y-4.675
X7.5905Y-5.68
X7.5905Y-6.675
X7.5905Y-7.68
X7.5955Y-1.675
X7.8105Y-1.8
X7.8105Y-2.8
X7.8105Y-3.8
X7.8105Y-4.8
X7.8105Y-5.805
X7.8105Y-6.8
X7.8105Y-7.805
X7.8105Y-8.795
X8.0255Y-1.535
X8.0255Y-2.59
X8.0255Y-3.59
X8.0255Y-4.59
X8.0255Y-5.585
X8.0255Y-7.595
X8.0305Y-6.585
X8.0305Y-8.595
X8.4155Y-2.035
X8.4155Y-4.035
X8.4155Y-5.035
X8.4205Y-6.04
X8.4205Y-7.03
X8.4205Y-8.04
X8.4205Y-9.04
X8.4355Y-3.035
X8.5855Y-8.585
X8.5905Y-1.675
X8.5905Y-4.675
X8.5905Y-6.675
X8.5905Y-7.68
X8.5955Y-3.675
X8.5955Y-5.675
X8.6105Y-2.675
X8.8205Y-1.8
X8.8205Y-2.8
X8.8205Y-3.8
X8.8205Y-4.8
X8.8205Y-5.805
X8.8205Y-6.795
X8.8205Y-7.805
X8.8205Y-8.795
X9.0655Y-2.59
X9.0655Y-3.59
X9.0655Y-4.59
X9.0655Y-5.59
X9.0655Y-6.59
X9.0655Y-7.54
X9.1905Y-1.5465
X9.2305Y-8.61
X9.3555Y-4.415
X9.4155Y-2.035
X9.4155Y-3.035
X9.4155Y-4.035
X9.4155Y-5.035
X9.4155Y-9.035
X9.4205Y-6.04
X9.4205Y-7.03
X9.4205Y-8.04
X9.4355Y-2.425
X9.5755Y-8.585
X9.5905Y-2.675
X9.5905Y-3.675
X9.5905Y-4.675
X9.5905Y-5.675
X9.5905Y-6.675
X9.5905Y-7.68
X9.6058Y-1.675
X9.62Y-2.125
X9.63Y-3.3
X9.63Y-3.36
X9.63Y-3.418
X9.64Y-3.975
X9.64Y-7.03
X9.64Y-7.09
X9.64Y-7.148
X9.65Y-5.98
X9.6855Y-2.37
X9.6855Y-4.365
X9.6905Y-6.365
X9.6905Y-8.21
X9.715Y-2.0
X9.7189Y-3.6287
X9.72Y-8.01
X9.7255Y-5.625
X9.7505Y-1.755
X9.7605Y-1.815
X9.7905Y-4.0
X9.7933Y-1.9626
X9.7955Y-6.03
X9.7974Y-8.035
X9.8105Y-6.305
X9.8105Y-7.73
X9.8105Y-7.895
X9.8155Y-6.61
X9.8205Y-7.645
X9.8205Y-8.64
X9.8241Y-5.9856
X9.8255Y-1.94
X9.8255Y-3.785
X9.8255Y-3.895
X9.8267Y-3.9845
X9.8355Y-5.71
X9.8355Y-5.835
X9.8355Y-8.005
X9.8455Y-2.295
X9.8505Y-4.195
X9.8505Y-4.3
X9.8505Y-8.21
X9.87Y-3.3
X9.87Y-3.36
X9.87Y-3.419
X9.8805Y-2.8
X9.8805Y-4.8
X9.942Y-7.03
X9.942Y-7.09
X9.942Y-7.147
X9.9705Y-4.625
X9.9755Y-2.615
X10.0305Y-6.795
X10.0655Y-6.58
X10.0655Y-8.8
X10.0729Y-1.6029
X10.0905Y-8.535
X10.1005Y-3.61
X10.1055Y-4.565
X10.1105Y-5.62
X10.1155Y-2.565
X10.1205Y-7.645
X10.1555Y-3.71
X10.1555Y-3.9
X10.2055Y-7.895
X10.2205Y-1.605
X10.2255Y-3.605
X10.2255Y-4.615
X10.2255Y-7.62
X10.2305Y-5.62
X10.2355Y-2.605
X10.2405Y-6.61
X10.2405Y-7.7
X10.2405Y-8.51
X10.2605Y-1.755
X10.2605Y-1.82
X10.2605Y-5.71
X10.2605Y-5.83
X10.4105Y-1.775
X10.4155Y-4.035
X10.4155Y-9.035
X10.4205Y-2.035
X10.4205Y-3.035
X10.4205Y-5.035
X10.4205Y-6.04
X10.4205Y-7.03
X10.4205Y-8.04
X10.7105Y-6.585
X10.7155Y-1.595
X10.7155Y-2.595
X10.7155Y-4.595
X10.7155Y-5.595
X10.7155Y-7.58
X10.7155Y-8.595
X10.72Y-3.555
X10.8405Y-6.795
X11.0005Y-7.8
X11.0005Y-8.8
X11.0355Y-7.55
X11.0405Y-6.575
X11.0455Y-1.56
X11.0455Y-1.8
X11.0455Y-2.56
X11.0455Y-2.8
X11.0455Y-3.56
X11.0455Y-3.8
X11.0455Y-4.56
X11.0455Y-4.8
X11.0455Y-5.57
X11.0455Y-5.8
X11.1205Y-8.495
X11.2205Y-1.605
X11.2255Y-3.605
X11.2255Y-4.615
X11.2305Y-2.605
X11.2305Y-5.62
X11.2405Y-6.615
X11.2405Y-7.495
X11.2405Y-8.5
X11.4155Y-2.035
X11.4155Y-4.035
X11.4155Y-6.045
X11.4155Y-8.04
X11.4155Y-9.035
X11.4205Y-3.035
X11.4205Y-5.035
X11.4205Y-7.03
X11.7255Y-1.59
X11.7255Y-2.59
X11.7255Y-3.565
X11.7255Y-4.59
X11.7255Y-5.59
X11.7255Y-7.58
X11.7305Y-6.59
X11.8005Y-8.6
X11.8505Y-6.805
X12.0155Y-8.8
X12.0205Y-7.55
X12.0305Y-6.555
X12.0505Y-1.8
X12.0505Y-2.8
X12.0505Y-3.8
X12.0505Y-4.8
X12.0505Y-5.805
X12.0605Y-7.805
X12.1355Y-8.5
X12.2205Y-1.605
X12.2255Y-4.615
X12.2255Y-5.62
X12.2305Y-2.605
X12.2355Y-7.495
X12.2405Y-3.615
X12.2405Y-6.51
X12.2405Y-8.5
X12.4105Y-8.04
X12.4155Y-2.035
X12.4155Y-3.035
X12.4155Y-7.03
X12.4155Y-9.035
X12.4205Y-4.035
X12.4205Y-5.035
X12.4205Y-6.045
X12.6955Y-6.59
X12.7155Y-7.58
X12.72Y-3.535
X12.7205Y-1.59
X12.7205Y-2.59
X12.7205Y-4.59
X12.7205Y-5.595
X12.8055Y-8.6
X12.9955Y-8.8
X13.0155Y-7.805
X13.0205Y-1.8
X13.0205Y-2.8
X13.0205Y-3.8
X13.0205Y-4.8
X13.0205Y-5.795
X13.0305Y-6.795
X13.0755Y-5.45
X13.2155Y-2.605
X13.2205Y-1.605
X13.2255Y-3.615
X13.2255Y-4.615
X13.2255Y-5.62
X13.2405Y-7.49
X13.2455Y-6.5
X13.2455Y-8.5
X13.4105Y-9.035
X13.4155Y-2.035
X13.4155Y-3.035
X13.4155Y-5.035
X13.4155Y-7.03
X13.4155Y-8.04
X13.4205Y-6.045
X13.425Y-3.425
X13.425Y-4.035
X13.5755Y-6.705
X13.5805Y-5.705
X13.5855Y-7.705
X13.5905Y-2.695
X13.5905Y-3.7
X13.5905Y-4.69
X13.5955Y-8.705
X13.5955Y-8.895
X13.6955Y-7.705
X13.7255Y-6.705
X13.7305Y-2.695
X13.7305Y-3.7
X13.7355Y-4.685
X13.7355Y-5.705
T3
X3.0441Y-8.8782
X3.0441Y-8.9782
X3.0441Y-9.0782
X3.0441Y-9.1782
X4.4079Y-1.3488
X4.4079Y-1.4488
X4.4079Y-1.5488
X4.4079Y-1.6488
X4.6174Y-5.0673
X4.6174Y-5.1673
X4.6174Y-5.2673
X4.6174Y-5.3673
T4
X2.5539Y-2.3016
X2.5539Y-2.4984
X2.5539Y-8.0016
X2.5539Y-8.1984
X3.0461Y-2.3016
X3.0461Y-2.4984
X3.0461Y-8.0016
X3.0461Y-8.1984
X3.4289Y-2.3016
X3.4289Y-2.4984
X3.4339Y-8.0016
X3.4339Y-8.1984
X3.9211Y-2.3016
X3.9211Y-2.4984
X3.9261Y-8.0016
X3.9261Y-8.1984
X4.3039Y-2.3016
X4.3039Y-2.4984
X4.3089Y-8.0016
X4.3089Y-8.1984
X4.7961Y-2.3016
X4.7961Y-2.4984
X4.8011Y-8.0016
X4.8011Y-8.1984
T5
X2.4462Y-1.327
X2.4462Y-1.512
X2.4462Y-1.697
T6
X2.2414Y-5.62
X2.2414Y-7.05
X4.9186Y-5.62
X4.9186Y-7.05
T2
G00X2.1083Y-3.1797
M15
G01X2.0768Y-3.1797
M16
G05
G00X2.1083Y-3.5203
M15
G01X2.0768Y-3.5203
M16
G05
G00X2.2825Y-3.1797
M15
G01X2.2392Y-3.1797
M16
G05
G00X2.2825Y-3.5203
M15
G01X2.2392Y-3.5203
M16
G05
T0
M30
