%TF.GenerationSoftware,KiCad,Pcbnew,(6.0.8-1)-1*%
%TF.CreationDate,2022-10-24T08:12:40-04:00*%
%TF.ProjectId,chess-board-iot,63686573-732d-4626-9f61-72642d696f74,A*%
%TF.SameCoordinates,Original*%
%TF.FileFunction,Soldermask,Top*%
%TF.FilePolarity,Negative*%
%FSLAX46Y46*%
G04 Gerber Fmt 4.6, Leading zero omitted, Abs format (unit mm)*
G04 Created by KiCad (PCBNEW (6.0.8-1)-1) date 2022-10-24 08:12:40*
%MOMM*%
%LPD*%
G01*
G04 APERTURE LIST*
G04 Aperture macros list*
%AMRoundRect*
0 Rectangle with rounded corners*
0 $1 Rounding radius*
0 $2 $3 $4 $5 $6 $7 $8 $9 X,Y pos of 4 corners*
0 Add a 4 corners polygon primitive as box body*
4,1,4,$2,$3,$4,$5,$6,$7,$8,$9,$2,$3,0*
0 Add four circle primitives for the rounded corners*
1,1,$1+$1,$2,$3*
1,1,$1+$1,$4,$5*
1,1,$1+$1,$6,$7*
1,1,$1+$1,$8,$9*
0 Add four rect primitives between the rounded corners*
20,1,$1+$1,$2,$3,$4,$5,0*
20,1,$1+$1,$4,$5,$6,$7,0*
20,1,$1+$1,$6,$7,$8,$9,0*
20,1,$1+$1,$8,$9,$2,$3,0*%
G04 Aperture macros list end*
%ADD10RoundRect,0.200000X0.275000X-0.200000X0.275000X0.200000X-0.275000X0.200000X-0.275000X-0.200000X0*%
%ADD11RoundRect,0.225000X0.225000X0.250000X-0.225000X0.250000X-0.225000X-0.250000X0.225000X-0.250000X0*%
%ADD12RoundRect,0.200000X0.200000X0.275000X-0.200000X0.275000X-0.200000X-0.275000X0.200000X-0.275000X0*%
%ADD13RoundRect,0.225000X-0.225000X-0.250000X0.225000X-0.250000X0.225000X0.250000X-0.225000X0.250000X0*%
%ADD14R,1.000000X1.500000*%
%ADD15RoundRect,0.150000X-0.587500X-0.150000X0.587500X-0.150000X0.587500X0.150000X-0.587500X0.150000X0*%
%ADD16RoundRect,0.150000X0.587500X0.150000X-0.587500X0.150000X-0.587500X-0.150000X0.587500X-0.150000X0*%
%ADD17O,3.048000X1.850000*%
%ADD18RoundRect,0.200000X-0.275000X0.200000X-0.275000X-0.200000X0.275000X-0.200000X0.275000X0.200000X0*%
%ADD19C,2.700000*%
%ADD20R,1.000000X1.400000*%
%ADD21R,0.800000X1.400000*%
%ADD22RoundRect,0.100000X0.100000X-0.637500X0.100000X0.637500X-0.100000X0.637500X-0.100000X-0.637500X0*%
%ADD23R,0.300000X0.800000*%
%ADD24RoundRect,0.200000X-0.200000X-0.275000X0.200000X-0.275000X0.200000X0.275000X-0.200000X0.275000X0*%
%ADD25R,0.900000X2.000000*%
%ADD26R,2.000000X0.900000*%
%ADD27R,5.000000X5.000000*%
%ADD28RoundRect,0.050000X-0.287500X0.050000X-0.287500X-0.050000X0.287500X-0.050000X0.287500X0.050000X0*%
%ADD29RoundRect,0.100000X-0.675000X0.100000X-0.675000X-0.100000X0.675000X-0.100000X0.675000X0.100000X0*%
%ADD30C,0.991000*%
%ADD31C,0.787000*%
%ADD32RoundRect,0.100000X0.637500X0.100000X-0.637500X0.100000X-0.637500X-0.100000X0.637500X-0.100000X0*%
%ADD33RoundRect,0.250000X0.262500X0.450000X-0.262500X0.450000X-0.262500X-0.450000X0.262500X-0.450000X0*%
%ADD34RoundRect,0.062500X-0.062500X0.337500X-0.062500X-0.337500X0.062500X-0.337500X0.062500X0.337500X0*%
%ADD35RoundRect,0.062500X-0.337500X0.062500X-0.337500X-0.062500X0.337500X-0.062500X0.337500X0.062500X0*%
%ADD36R,3.350000X3.350000*%
%ADD37RoundRect,0.250000X0.450000X-0.325000X0.450000X0.325000X-0.450000X0.325000X-0.450000X-0.325000X0*%
%ADD38C,5.700000*%
%ADD39R,1.700000X1.700000*%
%ADD40O,1.700000X1.700000*%
%ADD41RoundRect,0.225000X0.250000X-0.225000X0.250000X0.225000X-0.250000X0.225000X-0.250000X-0.225000X0*%
%ADD42RoundRect,0.150000X0.150000X-0.512500X0.150000X0.512500X-0.150000X0.512500X-0.150000X-0.512500X0*%
%ADD43RoundRect,0.218750X0.256250X-0.218750X0.256250X0.218750X-0.256250X0.218750X-0.256250X-0.218750X0*%
%ADD44O,0.600000X0.950000*%
%ADD45C,0.600000*%
%ADD46R,1.400000X0.300000*%
%ADD47O,2.300000X1.200000*%
%ADD48O,2.000000X1.200000*%
%ADD49RoundRect,0.218750X0.218750X0.256250X-0.218750X0.256250X-0.218750X-0.256250X0.218750X-0.256250X0*%
%ADD50C,5.000000*%
%ADD51RoundRect,0.218750X-0.218750X-0.256250X0.218750X-0.256250X0.218750X0.256250X-0.218750X0.256250X0*%
%ADD52RoundRect,0.225000X-0.250000X0.225000X-0.250000X-0.225000X0.250000X-0.225000X0.250000X0.225000X0*%
%ADD53RoundRect,0.250000X1.075000X-0.375000X1.075000X0.375000X-1.075000X0.375000X-1.075000X-0.375000X0*%
%ADD54R,2.000000X0.700000*%
%ADD55R,1.400000X2.700000*%
%ADD56R,2.600000X1.500000*%
%ADD57R,2.600000X1.000000*%
%ADD58R,1.200000X1.200000*%
%ADD59C,0.800000*%
G04 APERTURE END LIST*
D10*
%TO.C,R441*%
X165748580Y-92011000D03*
X165748580Y-90361000D03*
%TD*%
D11*
%TO.C,C237*%
X262916580Y-127889000D03*
X261366580Y-127889000D03*
%TD*%
D12*
%TO.C,R258*%
X162890580Y-50038000D03*
X161240580Y-50038000D03*
%TD*%
D13*
%TO.C,C411*%
X218186580Y-193675000D03*
X219736580Y-193675000D03*
%TD*%
%TO.C,C102*%
X57391000Y-129667000D03*
X58941000Y-129667000D03*
%TD*%
%TO.C,C403*%
X218059580Y-219456000D03*
X219609580Y-219456000D03*
%TD*%
D14*
%TO.C,D231*%
X313754580Y-149770000D03*
X315354580Y-149770000D03*
X316954580Y-149770000D03*
X316954580Y-144870000D03*
X315354580Y-144870000D03*
X313754580Y-144870000D03*
%TD*%
%TO.C,D222*%
X288354580Y-175170000D03*
X289954580Y-175170000D03*
X291554580Y-175170000D03*
X291554580Y-170270000D03*
X289954580Y-170270000D03*
X288354580Y-170270000D03*
%TD*%
D12*
%TO.C,R210*%
X188417580Y-202438000D03*
X186767580Y-202438000D03*
%TD*%
D13*
%TO.C,C441*%
X167386580Y-91948000D03*
X168936580Y-91948000D03*
%TD*%
D11*
%TO.C,C264*%
X339116580Y-51689000D03*
X337566580Y-51689000D03*
%TD*%
D12*
%TO.C,R112*%
X103025000Y-102700000D03*
X101375000Y-102700000D03*
%TD*%
D14*
%TO.C,D221*%
X262954580Y-175170000D03*
X264554580Y-175170000D03*
X266154580Y-175170000D03*
X266154580Y-170270000D03*
X264554580Y-170270000D03*
X262954580Y-170270000D03*
%TD*%
D15*
%TO.C,U442*%
X189417080Y-90236000D03*
X189417080Y-92136000D03*
D16*
X187417080Y-91186000D03*
%TD*%
%TO.C,U464*%
X339692080Y-41336000D03*
X339692080Y-39436000D03*
D15*
X341692080Y-40386000D03*
%TD*%
D14*
%TO.C,D236*%
X237554580Y-124370000D03*
X239154580Y-124370000D03*
X240754580Y-124370000D03*
X240754580Y-119470000D03*
X239154580Y-119470000D03*
X237554580Y-119470000D03*
%TD*%
D17*
%TO.C,SW107*%
X64870000Y-63460000D03*
X77370000Y-63460000D03*
X77370000Y-58460000D03*
X64870000Y-58460000D03*
%TD*%
D11*
%TO.C,C202*%
X186589580Y-229743000D03*
X185039580Y-229743000D03*
%TD*%
D15*
%TO.C,U457*%
X164144080Y-39436000D03*
X164144080Y-41336000D03*
D16*
X162144080Y-40386000D03*
%TD*%
D11*
%TO.C,C217*%
X161316580Y-178689000D03*
X159766580Y-178689000D03*
%TD*%
D12*
%TO.C,R240*%
X315417580Y-126238000D03*
X313767580Y-126238000D03*
%TD*%
D18*
%TO.C,R463*%
X312560580Y-39561000D03*
X312560580Y-41211000D03*
%TD*%
D19*
%TO.C,H104*%
X353454580Y-31750000D03*
%TD*%
D20*
%TO.C,U103*%
X64800000Y-84600000D03*
D21*
X63100000Y-84600000D03*
X63100000Y-86800000D03*
X65000000Y-86800000D03*
%TD*%
D18*
%TO.C,R456*%
X337579580Y-64961000D03*
X337579580Y-66611000D03*
%TD*%
D14*
%TO.C,D264*%
X339154580Y-48170000D03*
X340754580Y-48170000D03*
X342354580Y-48170000D03*
X342354580Y-43270000D03*
X340754580Y-43270000D03*
X339154580Y-43270000D03*
%TD*%
D22*
%TO.C,U303*%
X248279580Y-110812500D03*
X248929580Y-110812500D03*
X249579580Y-110812500D03*
X250229580Y-110812500D03*
X250879580Y-110812500D03*
X251529580Y-110812500D03*
X252179580Y-110812500D03*
X252829580Y-110812500D03*
X253479580Y-110812500D03*
X254129580Y-110812500D03*
X254779580Y-110812500D03*
X255429580Y-110812500D03*
X255429580Y-105087500D03*
X254779580Y-105087500D03*
X254129580Y-105087500D03*
X253479580Y-105087500D03*
X252829580Y-105087500D03*
X252179580Y-105087500D03*
X251529580Y-105087500D03*
X250879580Y-105087500D03*
X250229580Y-105087500D03*
X249579580Y-105087500D03*
X248929580Y-105087500D03*
X248279580Y-105087500D03*
%TD*%
D15*
%TO.C,U404*%
X239963080Y-217236000D03*
X239963080Y-219136000D03*
D16*
X237963080Y-218186000D03*
%TD*%
D14*
%TO.C,D209*%
X161354580Y-200570000D03*
X162954580Y-200570000D03*
X164554580Y-200570000D03*
X164554580Y-195670000D03*
X162954580Y-195670000D03*
X161354580Y-195670000D03*
%TD*%
D11*
%TO.C,C260*%
X237516580Y-51689000D03*
X235966580Y-51689000D03*
%TD*%
%TO.C,C445*%
X260122580Y-90297000D03*
X258572580Y-90297000D03*
%TD*%
D16*
%TO.C,U406*%
X288892080Y-219136000D03*
X288892080Y-217236000D03*
D15*
X290892080Y-218186000D03*
%TD*%
D14*
%TO.C,D243*%
X212154580Y-98970000D03*
X213754580Y-98970000D03*
X215354580Y-98970000D03*
X215354580Y-94070000D03*
X213754580Y-94070000D03*
X212154580Y-94070000D03*
%TD*%
D13*
%TO.C,C449*%
X167386580Y-66675000D03*
X168936580Y-66675000D03*
%TD*%
D11*
%TO.C,C259*%
X212116580Y-51689000D03*
X210566580Y-51689000D03*
%TD*%
D15*
%TO.C,U409*%
X164017080Y-191836000D03*
X164017080Y-193736000D03*
D16*
X162017080Y-192786000D03*
%TD*%
D12*
%TO.C,R204*%
X239090580Y-228092000D03*
X237440580Y-228092000D03*
%TD*%
D11*
%TO.C,C431*%
X310922580Y-141097000D03*
X309372580Y-141097000D03*
%TD*%
%TO.C,C233*%
X161316580Y-127889000D03*
X159766580Y-127889000D03*
%TD*%
D12*
%TO.C,R211*%
X213817580Y-202438000D03*
X212167580Y-202438000D03*
%TD*%
%TO.C,R251*%
X188290580Y-75438000D03*
X186640580Y-75438000D03*
%TD*%
%TO.C,R263*%
X289890580Y-50038000D03*
X288240580Y-50038000D03*
%TD*%
D11*
%TO.C,C461*%
X260249580Y-39370000D03*
X258699580Y-39370000D03*
%TD*%
D12*
%TO.C,R249*%
X340944580Y-100838000D03*
X339294580Y-100838000D03*
%TD*%
D11*
%TO.C,C406*%
X285522580Y-217424000D03*
X283972580Y-217424000D03*
%TD*%
D13*
%TO.C,C442*%
X192786580Y-91948000D03*
X194336580Y-91948000D03*
%TD*%
D11*
%TO.C,C255*%
X313462580Y-77089000D03*
X311912580Y-77089000D03*
%TD*%
D12*
%TO.C,R255*%
X290017580Y-75438000D03*
X288367580Y-75438000D03*
%TD*%
D23*
%TO.C,U201*%
X85840000Y-95097000D03*
X85340000Y-95097000D03*
X84840000Y-95097000D03*
X84340000Y-95097000D03*
X84340000Y-98197000D03*
X84840000Y-98197000D03*
X85340000Y-98197000D03*
X85840000Y-98197000D03*
%TD*%
D16*
%TO.C,U407*%
X314292080Y-219136000D03*
X314292080Y-217236000D03*
D15*
X316292080Y-218186000D03*
%TD*%
D18*
%TO.C,R413*%
X261633580Y-191961000D03*
X261633580Y-193611000D03*
%TD*%
D14*
%TO.C,D248*%
X339154580Y-98970000D03*
X340754580Y-98970000D03*
X342354580Y-98970000D03*
X342354580Y-94070000D03*
X340754580Y-94070000D03*
X339154580Y-94070000D03*
%TD*%
D11*
%TO.C,C243*%
X211989580Y-102489000D03*
X210439580Y-102489000D03*
%TD*%
D18*
%TO.C,R117*%
X73288200Y-227615000D03*
X73288200Y-229265000D03*
%TD*%
D14*
%TO.C,D251*%
X212662580Y-73570000D03*
X214262580Y-73570000D03*
X215862580Y-73570000D03*
X215862580Y-68670000D03*
X214262580Y-68670000D03*
X212662580Y-68670000D03*
%TD*%
D16*
%TO.C,U424*%
X339692080Y-168336000D03*
X339692080Y-166436000D03*
D15*
X341692080Y-167386000D03*
%TD*%
D14*
%TO.C,D260*%
X237554580Y-48170000D03*
X239154580Y-48170000D03*
X240754580Y-48170000D03*
X240754580Y-43270000D03*
X239154580Y-43270000D03*
X237554580Y-43270000D03*
%TD*%
D11*
%TO.C,C242*%
X186716580Y-102489000D03*
X185166580Y-102489000D03*
%TD*%
D13*
%TO.C,C450*%
X192786580Y-66675000D03*
X194336580Y-66675000D03*
%TD*%
D18*
%TO.C,R439*%
X312560580Y-115761000D03*
X312560580Y-117411000D03*
%TD*%
D10*
%TO.C,R433*%
X165748580Y-117411000D03*
X165748580Y-115761000D03*
%TD*%
D24*
%TO.C,R305*%
X76772000Y-198120000D03*
X78422000Y-198120000D03*
%TD*%
D12*
%TO.C,R219*%
X188417580Y-177038000D03*
X186767580Y-177038000D03*
%TD*%
D25*
%TO.C,U102*%
X58717000Y-115450000D03*
X59987000Y-115450000D03*
X61257000Y-115450000D03*
X62527000Y-115450000D03*
X63797000Y-115450000D03*
X65067000Y-115450000D03*
X66337000Y-115450000D03*
X67607000Y-115450000D03*
X68877000Y-115450000D03*
X70147000Y-115450000D03*
X71417000Y-115450000D03*
X72687000Y-115450000D03*
X73957000Y-115450000D03*
X75227000Y-115450000D03*
D26*
X76227000Y-112665000D03*
X76227000Y-111395000D03*
X76227000Y-110125000D03*
X76227000Y-108855000D03*
X76227000Y-107585000D03*
X76227000Y-106315000D03*
X76227000Y-105045000D03*
X76227000Y-103775000D03*
X76227000Y-102505000D03*
X76227000Y-101235000D03*
D25*
X75227000Y-98450000D03*
X73957000Y-98450000D03*
X72687000Y-98450000D03*
X71417000Y-98450000D03*
X70147000Y-98450000D03*
X68877000Y-98450000D03*
X67607000Y-98450000D03*
X66337000Y-98450000D03*
X65067000Y-98450000D03*
X63797000Y-98450000D03*
X62527000Y-98450000D03*
X61257000Y-98450000D03*
X59987000Y-98450000D03*
X58717000Y-98450000D03*
D27*
X66217000Y-107950000D03*
%TD*%
D14*
%TO.C,D213*%
X262827580Y-200570000D03*
X264427580Y-200570000D03*
X266027580Y-200570000D03*
X266027580Y-195670000D03*
X264427580Y-195670000D03*
X262827580Y-195670000D03*
%TD*%
D11*
%TO.C,C265*%
X85865000Y-93091000D03*
X84315000Y-93091000D03*
%TD*%
D16*
%TO.C,U445*%
X263492080Y-92136000D03*
X263492080Y-90236000D03*
D15*
X265492080Y-91186000D03*
%TD*%
%TO.C,U435*%
X214817080Y-115636000D03*
X214817080Y-117536000D03*
D16*
X212817080Y-116586000D03*
%TD*%
D18*
%TO.C,R416*%
X337960580Y-191961000D03*
X337960580Y-193611000D03*
%TD*%
D28*
%TO.C,D101*%
X69904700Y-225934000D03*
X69029700Y-225934000D03*
X69029700Y-226434000D03*
X69904700Y-226434000D03*
D29*
X69467200Y-226934000D03*
D28*
X69029700Y-227434000D03*
X69904700Y-227434000D03*
X69029700Y-227934000D03*
X69904700Y-227934000D03*
%TD*%
D11*
%TO.C,C462*%
X285522580Y-39370000D03*
X283972580Y-39370000D03*
%TD*%
D10*
%TO.C,R425*%
X166764580Y-142811000D03*
X166764580Y-141161000D03*
%TD*%
D16*
%TO.C,U437*%
X263492080Y-117536000D03*
X263492080Y-115636000D03*
D15*
X265492080Y-116586000D03*
%TD*%
%TO.C,U450*%
X189417080Y-64836000D03*
X189417080Y-66736000D03*
D16*
X187417080Y-65786000D03*
%TD*%
D11*
%TO.C,C215*%
X313589580Y-204089000D03*
X312039580Y-204089000D03*
%TD*%
D10*
%TO.C,R449*%
X165748580Y-66611000D03*
X165748580Y-64961000D03*
%TD*%
D11*
%TO.C,C245*%
X262916580Y-102489000D03*
X261366580Y-102489000D03*
%TD*%
%TO.C,C261*%
X262916580Y-51689000D03*
X261366580Y-51689000D03*
%TD*%
D10*
%TO.C,R450*%
X191148580Y-66611000D03*
X191148580Y-64961000D03*
%TD*%
D14*
%TO.C,D204*%
X237554580Y-225970000D03*
X239154580Y-225970000D03*
X240754580Y-225970000D03*
X240754580Y-221070000D03*
X239154580Y-221070000D03*
X237554580Y-221070000D03*
%TD*%
D12*
%TO.C,R208*%
X340690580Y-228092000D03*
X339040580Y-228092000D03*
%TD*%
D11*
%TO.C,C213*%
X262916580Y-204089000D03*
X261366580Y-204089000D03*
%TD*%
D15*
%TO.C,U417*%
X164017080Y-166436000D03*
X164017080Y-168336000D03*
D16*
X162017080Y-167386000D03*
%TD*%
D12*
%TO.C,R201*%
X162941380Y-228066600D03*
X161291380Y-228066600D03*
%TD*%
D24*
%TO.C,R303*%
X241123580Y-61595000D03*
X242773580Y-61595000D03*
%TD*%
D12*
%TO.C,R206*%
X289890580Y-228092000D03*
X288240580Y-228092000D03*
%TD*%
D15*
%TO.C,U459*%
X214817080Y-39436000D03*
X214817080Y-41336000D03*
D16*
X212817080Y-40386000D03*
%TD*%
D12*
%TO.C,R236*%
X213690580Y-126238000D03*
X212040580Y-126238000D03*
%TD*%
D18*
%TO.C,R453*%
X261887580Y-64961000D03*
X261887580Y-66611000D03*
%TD*%
D12*
%TO.C,R108*%
X102975000Y-105900000D03*
X101325000Y-105900000D03*
%TD*%
%TO.C,R265*%
X340817580Y-50038000D03*
X339167580Y-50038000D03*
%TD*%
%TO.C,R254*%
X264744580Y-75438000D03*
X263094580Y-75438000D03*
%TD*%
D13*
%TO.C,C459*%
X218186580Y-41275000D03*
X219736580Y-41275000D03*
%TD*%
D30*
%TO.C,J104*%
X87376000Y-90424000D03*
X88391000Y-85344000D03*
X86361000Y-85344000D03*
D31*
X88011000Y-89154000D03*
X86741000Y-89154000D03*
X88011000Y-87884000D03*
X86741000Y-87884000D03*
X88011000Y-86614000D03*
X86741000Y-86614000D03*
%TD*%
D16*
%TO.C,U447*%
X314800080Y-92136000D03*
X314800080Y-90236000D03*
D15*
X316800080Y-91186000D03*
%TD*%
D14*
%TO.C,D245*%
X263081580Y-98970000D03*
X264681580Y-98970000D03*
X266281580Y-98970000D03*
X266281580Y-94070000D03*
X264681580Y-94070000D03*
X263081580Y-94070000D03*
%TD*%
%TO.C,D261*%
X263081580Y-48170000D03*
X264681580Y-48170000D03*
X266281580Y-48170000D03*
X266281580Y-43270000D03*
X264681580Y-43270000D03*
X263081580Y-43270000D03*
%TD*%
%TO.C,D253*%
X263081580Y-73570000D03*
X264681580Y-73570000D03*
X266281580Y-73570000D03*
X266281580Y-68670000D03*
X264681580Y-68670000D03*
X263081580Y-68670000D03*
%TD*%
D16*
%TO.C,U461*%
X263619080Y-41336000D03*
X263619080Y-39436000D03*
D15*
X265619080Y-40386000D03*
%TD*%
D14*
%TO.C,D239*%
X313754580Y-124370000D03*
X315354580Y-124370000D03*
X316954580Y-124370000D03*
X316954580Y-119470000D03*
X315354580Y-119470000D03*
X313754580Y-119470000D03*
%TD*%
D18*
%TO.C,R424*%
X337960580Y-166561000D03*
X337960580Y-168211000D03*
%TD*%
D10*
%TO.C,R315*%
X105156000Y-123253000D03*
X105156000Y-121603000D03*
%TD*%
D14*
%TO.C,D230*%
X288354580Y-149770000D03*
X289954580Y-149770000D03*
X291554580Y-149770000D03*
X291554580Y-144870000D03*
X289954580Y-144870000D03*
X288354580Y-144870000D03*
%TD*%
D12*
%TO.C,R264*%
X315290580Y-50038000D03*
X313640580Y-50038000D03*
%TD*%
D32*
%TO.C,U104*%
X90619500Y-109747000D03*
X90619500Y-109097000D03*
X90619500Y-108447000D03*
X90619500Y-107797000D03*
X90619500Y-107147000D03*
X90619500Y-106497000D03*
X90619500Y-105847000D03*
X90619500Y-105197000D03*
X90619500Y-104547000D03*
X90619500Y-103897000D03*
X90619500Y-103247000D03*
X90619500Y-102597000D03*
X84894500Y-102597000D03*
X84894500Y-103247000D03*
X84894500Y-103897000D03*
X84894500Y-104547000D03*
X84894500Y-105197000D03*
X84894500Y-105847000D03*
X84894500Y-106497000D03*
X84894500Y-107147000D03*
X84894500Y-107797000D03*
X84894500Y-108447000D03*
X84894500Y-109097000D03*
X84894500Y-109747000D03*
%TD*%
D11*
%TO.C,C201*%
X161240380Y-229717600D03*
X159690380Y-229717600D03*
%TD*%
%TO.C,C207*%
X313716580Y-229743000D03*
X312166580Y-229743000D03*
%TD*%
%TO.C,C262*%
X288189580Y-51689000D03*
X286639580Y-51689000D03*
%TD*%
%TO.C,C439*%
X310922580Y-115824000D03*
X309372580Y-115824000D03*
%TD*%
D12*
%TO.C,R101*%
X62928000Y-118237000D03*
X61278000Y-118237000D03*
%TD*%
D13*
%TO.C,C444*%
X243586580Y-91948000D03*
X245136580Y-91948000D03*
%TD*%
D11*
%TO.C,C234*%
X186716580Y-127889000D03*
X185166580Y-127889000D03*
%TD*%
%TO.C,C246*%
X288443580Y-102489000D03*
X286893580Y-102489000D03*
%TD*%
D10*
%TO.C,R457*%
X165875580Y-41211000D03*
X165875580Y-39561000D03*
%TD*%
D11*
%TO.C,C219*%
X212116580Y-178689000D03*
X210566580Y-178689000D03*
%TD*%
D12*
%TO.C,R242*%
X163017580Y-100838000D03*
X161367580Y-100838000D03*
%TD*%
%TO.C,R314*%
X65341000Y-68580000D03*
X63691000Y-68580000D03*
%TD*%
D33*
%TO.C,R102*%
X64912500Y-82675000D03*
X63087500Y-82675000D03*
%TD*%
D12*
%TO.C,R205*%
X264617580Y-228092000D03*
X262967580Y-228092000D03*
%TD*%
D15*
%TO.C,U444*%
X240217080Y-90236000D03*
X240217080Y-92136000D03*
D16*
X238217080Y-91186000D03*
%TD*%
D34*
%TO.C,U105*%
X73890000Y-85688000D03*
X73390000Y-85688000D03*
X72890000Y-85688000D03*
X72390000Y-85688000D03*
X71890000Y-85688000D03*
X71390000Y-85688000D03*
X70890000Y-85688000D03*
D35*
X69940000Y-86638000D03*
X69940000Y-87138000D03*
X69940000Y-87638000D03*
X69940000Y-88138000D03*
X69940000Y-88638000D03*
X69940000Y-89138000D03*
X69940000Y-89638000D03*
D34*
X70890000Y-90588000D03*
X71390000Y-90588000D03*
X71890000Y-90588000D03*
X72390000Y-90588000D03*
X72890000Y-90588000D03*
X73390000Y-90588000D03*
X73890000Y-90588000D03*
D35*
X74840000Y-89638000D03*
X74840000Y-89138000D03*
X74840000Y-88638000D03*
X74840000Y-88138000D03*
X74840000Y-87638000D03*
X74840000Y-87138000D03*
X74840000Y-86638000D03*
D36*
X72390000Y-88138000D03*
%TD*%
D16*
%TO.C,U422*%
X288892080Y-168336000D03*
X288892080Y-166436000D03*
D15*
X290892080Y-167386000D03*
%TD*%
D11*
%TO.C,C236*%
X237389580Y-127889000D03*
X235839580Y-127889000D03*
%TD*%
%TO.C,C222*%
X288443580Y-178689000D03*
X286893580Y-178689000D03*
%TD*%
%TO.C,C227*%
X212116580Y-153289000D03*
X210566580Y-153289000D03*
%TD*%
D15*
%TO.C,U418*%
X189417080Y-166436000D03*
X189417080Y-168336000D03*
D16*
X187417080Y-167386000D03*
%TD*%
D11*
%TO.C,C446*%
X285522580Y-90297000D03*
X283972580Y-90297000D03*
%TD*%
D10*
%TO.C,R436*%
X241948580Y-117411000D03*
X241948580Y-115761000D03*
%TD*%
D37*
%TO.C,L101*%
X55825400Y-68497400D03*
X55825400Y-66447400D03*
%TD*%
D10*
%TO.C,R426*%
X191148580Y-142811000D03*
X191148580Y-141161000D03*
%TD*%
D13*
%TO.C,C410*%
X192786580Y-193675000D03*
X194336580Y-193675000D03*
%TD*%
D38*
%TO.C,H115*%
X59000000Y-242000000D03*
%TD*%
D14*
%TO.C,D211*%
X212154580Y-200570000D03*
X213754580Y-200570000D03*
X215354580Y-200570000D03*
X215354580Y-195670000D03*
X213754580Y-195670000D03*
X212154580Y-195670000D03*
%TD*%
D12*
%TO.C,R243*%
X188290580Y-100838000D03*
X186640580Y-100838000D03*
%TD*%
%TO.C,R223*%
X290017580Y-177038000D03*
X288367580Y-177038000D03*
%TD*%
D24*
%TO.C,R302*%
X238964580Y-112141000D03*
X240614580Y-112141000D03*
%TD*%
D16*
%TO.C,U423*%
X314292080Y-168336000D03*
X314292080Y-166436000D03*
D15*
X316292080Y-167386000D03*
%TD*%
D12*
%TO.C,R202*%
X188290580Y-228092000D03*
X186640580Y-228092000D03*
%TD*%
D39*
%TO.C,OLED102*%
X111961000Y-34260000D03*
D40*
X111961000Y-36800000D03*
X111961000Y-39340000D03*
X111961000Y-41880000D03*
%TD*%
D12*
%TO.C,R241*%
X340817580Y-126238000D03*
X339167580Y-126238000D03*
%TD*%
D16*
%TO.C,U454*%
X288892080Y-66736000D03*
X288892080Y-64836000D03*
D15*
X290892080Y-65786000D03*
%TD*%
D14*
%TO.C,D208*%
X339154580Y-225970000D03*
X340754580Y-225970000D03*
X342354580Y-225970000D03*
X342354580Y-221070000D03*
X340754580Y-221070000D03*
X339154580Y-221070000D03*
%TD*%
D11*
%TO.C,C301*%
X246901000Y-204978000D03*
X245351000Y-204978000D03*
%TD*%
D10*
%TO.C,R435*%
X216548580Y-117411000D03*
X216548580Y-115761000D03*
%TD*%
D19*
%TO.C,H109*%
X251854580Y-133350000D03*
%TD*%
D14*
%TO.C,D262*%
X288354580Y-48170000D03*
X289954580Y-48170000D03*
X291554580Y-48170000D03*
X291554580Y-43270000D03*
X289954580Y-43270000D03*
X288354580Y-43270000D03*
%TD*%
D22*
%TO.C,U301*%
X248279580Y-212412500D03*
X248929580Y-212412500D03*
X249579580Y-212412500D03*
X250229580Y-212412500D03*
X250879580Y-212412500D03*
X251529580Y-212412500D03*
X252179580Y-212412500D03*
X252829580Y-212412500D03*
X253479580Y-212412500D03*
X254129580Y-212412500D03*
X254779580Y-212412500D03*
X255429580Y-212412500D03*
X255429580Y-206687500D03*
X254779580Y-206687500D03*
X254129580Y-206687500D03*
X253479580Y-206687500D03*
X252829580Y-206687500D03*
X252179580Y-206687500D03*
X251529580Y-206687500D03*
X250879580Y-206687500D03*
X250229580Y-206687500D03*
X249579580Y-206687500D03*
X248929580Y-206687500D03*
X248279580Y-206687500D03*
%TD*%
D14*
%TO.C,D218*%
X186754580Y-175170000D03*
X188354580Y-175170000D03*
X189954580Y-175170000D03*
X189954580Y-170270000D03*
X188354580Y-170270000D03*
X186754580Y-170270000D03*
%TD*%
D41*
%TO.C,C104*%
X68200000Y-85125000D03*
X68200000Y-83575000D03*
%TD*%
D13*
%TO.C,C401*%
X167196580Y-219456000D03*
X168746580Y-219456000D03*
%TD*%
D14*
%TO.C,D225*%
X161354580Y-149770000D03*
X162954580Y-149770000D03*
X164554580Y-149770000D03*
X164554580Y-144870000D03*
X162954580Y-144870000D03*
X161354580Y-144870000D03*
%TD*%
D11*
%TO.C,C413*%
X259995580Y-191897000D03*
X258445580Y-191897000D03*
%TD*%
D14*
%TO.C,D233*%
X161354580Y-124370000D03*
X162954580Y-124370000D03*
X164554580Y-124370000D03*
X164554580Y-119470000D03*
X162954580Y-119470000D03*
X161354580Y-119470000D03*
%TD*%
D11*
%TO.C,C216*%
X339116580Y-204089000D03*
X337566580Y-204089000D03*
%TD*%
D12*
%TO.C,R217*%
X340754580Y-202438000D03*
X339104580Y-202438000D03*
%TD*%
D14*
%TO.C,D238*%
X288354580Y-124370000D03*
X289954580Y-124370000D03*
X291554580Y-124370000D03*
X291554580Y-119470000D03*
X289954580Y-119470000D03*
X288354580Y-119470000D03*
%TD*%
D15*
%TO.C,U412*%
X240217080Y-191836000D03*
X240217080Y-193736000D03*
D16*
X238217080Y-192786000D03*
%TD*%
%TO.C,U408*%
X339692080Y-219136000D03*
X339692080Y-217236000D03*
D15*
X341692080Y-218186000D03*
%TD*%
D12*
%TO.C,R313*%
X87566000Y-68580000D03*
X85916000Y-68580000D03*
%TD*%
D22*
%TO.C,U302*%
X248279580Y-161612500D03*
X248929580Y-161612500D03*
X249579580Y-161612500D03*
X250229580Y-161612500D03*
X250879580Y-161612500D03*
X251529580Y-161612500D03*
X252179580Y-161612500D03*
X252829580Y-161612500D03*
X253479580Y-161612500D03*
X254129580Y-161612500D03*
X254779580Y-161612500D03*
X255429580Y-161612500D03*
X255429580Y-155887500D03*
X254779580Y-155887500D03*
X254129580Y-155887500D03*
X253479580Y-155887500D03*
X252829580Y-155887500D03*
X252179580Y-155887500D03*
X251529580Y-155887500D03*
X250879580Y-155887500D03*
X250229580Y-155887500D03*
X249579580Y-155887500D03*
X248929580Y-155887500D03*
X248279580Y-155887500D03*
%TD*%
D15*
%TO.C,U403*%
X214817080Y-217236000D03*
X214817080Y-219136000D03*
D16*
X212817080Y-218186000D03*
%TD*%
D13*
%TO.C,C460*%
X243586580Y-41275000D03*
X245136580Y-41275000D03*
%TD*%
D12*
%TO.C,R246*%
X264490580Y-100838000D03*
X262840580Y-100838000D03*
%TD*%
%TO.C,R247*%
X290017580Y-100838000D03*
X288367580Y-100838000D03*
%TD*%
D16*
%TO.C,U440*%
X339692080Y-117536000D03*
X339692080Y-115636000D03*
D15*
X341692080Y-116586000D03*
%TD*%
D11*
%TO.C,C414*%
X285522580Y-191897000D03*
X283972580Y-191897000D03*
%TD*%
%TO.C,C240*%
X339116580Y-127889000D03*
X337566580Y-127889000D03*
%TD*%
%TO.C,C103*%
X56782000Y-125222000D03*
X55232000Y-125222000D03*
%TD*%
%TO.C,C241*%
X161316580Y-102489000D03*
X159766580Y-102489000D03*
%TD*%
%TO.C,C210*%
X186716580Y-204089000D03*
X185166580Y-204089000D03*
%TD*%
D12*
%TO.C,R256*%
X315290580Y-75438000D03*
X313640580Y-75438000D03*
%TD*%
%TO.C,R214*%
X264490580Y-202438000D03*
X262840580Y-202438000D03*
%TD*%
D18*
%TO.C,R304*%
X246139580Y-54039000D03*
X246139580Y-55689000D03*
%TD*%
D13*
%TO.C,C418*%
X192773580Y-168275000D03*
X194323580Y-168275000D03*
%TD*%
D11*
%TO.C,C247*%
X313843580Y-102489000D03*
X312293580Y-102489000D03*
%TD*%
D10*
%TO.C,R401*%
X165685580Y-219011000D03*
X165685580Y-217361000D03*
%TD*%
D16*
%TO.C,U462*%
X288892080Y-41336000D03*
X288892080Y-39436000D03*
D15*
X290892080Y-40386000D03*
%TD*%
D11*
%TO.C,C454*%
X285522580Y-64897000D03*
X283972580Y-64897000D03*
%TD*%
D12*
%TO.C,R220*%
X213817580Y-177038000D03*
X212167580Y-177038000D03*
%TD*%
D11*
%TO.C,C422*%
X285522580Y-166624000D03*
X283972580Y-166624000D03*
%TD*%
D14*
%TO.C,D246*%
X288354580Y-98970000D03*
X289954580Y-98970000D03*
X291554580Y-98970000D03*
X291554580Y-94070000D03*
X289954580Y-94070000D03*
X288354580Y-94070000D03*
%TD*%
D24*
%TO.C,R307*%
X98870000Y-198120000D03*
X100520000Y-198120000D03*
%TD*%
D10*
%TO.C,R404*%
X241694580Y-219011000D03*
X241694580Y-217361000D03*
%TD*%
D14*
%TO.C,D223*%
X313754580Y-175170000D03*
X315354580Y-175170000D03*
X316954580Y-175170000D03*
X316954580Y-170270000D03*
X315354580Y-170270000D03*
X313754580Y-170270000D03*
%TD*%
%TO.C,D241*%
X161354580Y-98970000D03*
X162954580Y-98970000D03*
X164554580Y-98970000D03*
X164554580Y-94070000D03*
X162954580Y-94070000D03*
X161354580Y-94070000D03*
%TD*%
D16*
%TO.C,U432*%
X339692080Y-142936000D03*
X339692080Y-141036000D03*
D15*
X341692080Y-141986000D03*
%TD*%
D42*
%TO.C,U101*%
X59756000Y-127629500D03*
X60706000Y-127629500D03*
X61656000Y-127629500D03*
X61656000Y-125354500D03*
X59756000Y-125354500D03*
%TD*%
D10*
%TO.C,R417*%
X165748580Y-168211000D03*
X165748580Y-166561000D03*
%TD*%
D19*
%TO.C,H108*%
X353454580Y-234950000D03*
%TD*%
D18*
%TO.C,R406*%
X287160580Y-217361000D03*
X287160580Y-219011000D03*
%TD*%
D11*
%TO.C,C254*%
X288316580Y-77089000D03*
X286766580Y-77089000D03*
%TD*%
D14*
%TO.C,D250*%
X186754580Y-73570000D03*
X188354580Y-73570000D03*
X189954580Y-73570000D03*
X189954580Y-68670000D03*
X188354580Y-68670000D03*
X186754580Y-68670000D03*
%TD*%
D11*
%TO.C,C212*%
X237389580Y-204089000D03*
X235839580Y-204089000D03*
%TD*%
D10*
%TO.C,R444*%
X241948580Y-92011000D03*
X241948580Y-90361000D03*
%TD*%
D14*
%TO.C,D247*%
X313754580Y-98970000D03*
X315354580Y-98970000D03*
X316954580Y-98970000D03*
X316954580Y-94070000D03*
X315354580Y-94070000D03*
X313754580Y-94070000D03*
%TD*%
D12*
%TO.C,R250*%
X162890580Y-75438000D03*
X161240580Y-75438000D03*
%TD*%
D24*
%TO.C,R104*%
X104525000Y-104300000D03*
X106175000Y-104300000D03*
%TD*%
D12*
%TO.C,R233*%
X340817580Y-151638000D03*
X339167580Y-151638000D03*
%TD*%
D11*
%TO.C,C206*%
X288189580Y-229743000D03*
X286639580Y-229743000D03*
%TD*%
D16*
%TO.C,U431*%
X314292080Y-142936000D03*
X314292080Y-141036000D03*
D15*
X316292080Y-141986000D03*
%TD*%
D11*
%TO.C,C251*%
X212624580Y-77089000D03*
X211074580Y-77089000D03*
%TD*%
D16*
%TO.C,U456*%
X339311080Y-66736000D03*
X339311080Y-64836000D03*
D15*
X341311080Y-65786000D03*
%TD*%
D14*
%TO.C,D240*%
X339154580Y-124370000D03*
X340754580Y-124370000D03*
X342354580Y-124370000D03*
X342354580Y-119470000D03*
X340754580Y-119470000D03*
X339154580Y-119470000D03*
%TD*%
D11*
%TO.C,C429*%
X260122580Y-141097000D03*
X258572580Y-141097000D03*
%TD*%
D14*
%TO.C,D207*%
X313754580Y-225970000D03*
X315354580Y-225970000D03*
X316954580Y-225970000D03*
X316954580Y-221070000D03*
X315354580Y-221070000D03*
X313754580Y-221070000D03*
%TD*%
D15*
%TO.C,U426*%
X189417080Y-141036000D03*
X189417080Y-142936000D03*
D16*
X187417080Y-141986000D03*
%TD*%
D10*
%TO.C,R420*%
X241948580Y-168211000D03*
X241948580Y-166561000D03*
%TD*%
D12*
%TO.C,R234*%
X163017580Y-126238000D03*
X161367580Y-126238000D03*
%TD*%
D11*
%TO.C,C257*%
X161189580Y-51689000D03*
X159639580Y-51689000D03*
%TD*%
D18*
%TO.C,R454*%
X287160580Y-64961000D03*
X287160580Y-66611000D03*
%TD*%
D15*
%TO.C,Q101*%
X79707500Y-88839000D03*
X79707500Y-90739000D03*
X81582500Y-89789000D03*
%TD*%
D11*
%TO.C,C107*%
X59830000Y-119761000D03*
X58280000Y-119761000D03*
%TD*%
D13*
%TO.C,C409*%
X167386580Y-193675000D03*
X168936580Y-193675000D03*
%TD*%
D12*
%TO.C,R262*%
X264617580Y-50038000D03*
X262967580Y-50038000D03*
%TD*%
D19*
%TO.C,H101*%
X251854580Y-31750000D03*
%TD*%
D14*
%TO.C,D252*%
X237554580Y-73570000D03*
X239154580Y-73570000D03*
X240754580Y-73570000D03*
X240754580Y-68670000D03*
X239154580Y-68670000D03*
X237554580Y-68670000D03*
%TD*%
D11*
%TO.C,C204*%
X237389580Y-229743000D03*
X235839580Y-229743000D03*
%TD*%
D12*
%TO.C,R212*%
X239090580Y-202438000D03*
X237440580Y-202438000D03*
%TD*%
D16*
%TO.C,U453*%
X263619080Y-66736000D03*
X263619080Y-64836000D03*
D15*
X265619080Y-65786000D03*
%TD*%
D12*
%TO.C,R261*%
X239090580Y-50038000D03*
X237440580Y-50038000D03*
%TD*%
D19*
%TO.C,H107*%
X150254580Y-31750000D03*
%TD*%
D12*
%TO.C,R259*%
X188290580Y-50038000D03*
X186640580Y-50038000D03*
%TD*%
D18*
%TO.C,R432*%
X337960580Y-141161000D03*
X337960580Y-142811000D03*
%TD*%
D14*
%TO.C,D244*%
X237554580Y-98970000D03*
X239154580Y-98970000D03*
X240754580Y-98970000D03*
X240754580Y-94070000D03*
X239154580Y-94070000D03*
X237554580Y-94070000D03*
%TD*%
D11*
%TO.C,C303*%
X246774000Y-103251000D03*
X245224000Y-103251000D03*
%TD*%
%TO.C,C453*%
X260249580Y-64897000D03*
X258699580Y-64897000D03*
%TD*%
D14*
%TO.C,D217*%
X161354580Y-175170000D03*
X162954580Y-175170000D03*
X164554580Y-175170000D03*
X164554580Y-170270000D03*
X162954580Y-170270000D03*
X161354580Y-170270000D03*
%TD*%
%TO.C,D242*%
X186754580Y-98970000D03*
X188354580Y-98970000D03*
X189954580Y-98970000D03*
X189954580Y-94070000D03*
X188354580Y-94070000D03*
X186754580Y-94070000D03*
%TD*%
D11*
%TO.C,C106*%
X68475000Y-82050000D03*
X66925000Y-82050000D03*
%TD*%
D24*
%TO.C,R109*%
X79693000Y-87249000D03*
X81343000Y-87249000D03*
%TD*%
D15*
%TO.C,U420*%
X240217080Y-166436000D03*
X240217080Y-168336000D03*
D16*
X238217080Y-167386000D03*
%TD*%
D10*
%TO.C,R427*%
X216675580Y-142684000D03*
X216675580Y-141034000D03*
%TD*%
D13*
%TO.C,C417*%
X167386580Y-168275000D03*
X168936580Y-168275000D03*
%TD*%
D43*
%TO.C,LED103*%
X53975000Y-132359500D03*
X53975000Y-130784500D03*
%TD*%
D13*
%TO.C,C452*%
X243586580Y-66675000D03*
X245136580Y-66675000D03*
%TD*%
%TO.C,C101*%
X61328000Y-119761000D03*
X62878000Y-119761000D03*
%TD*%
D38*
%TO.C,H112*%
X360000000Y-25500000D03*
%TD*%
D17*
%TO.C,SW108*%
X109320000Y-63460000D03*
X121820000Y-63460000D03*
X121820000Y-58460000D03*
X109320000Y-58460000D03*
%TD*%
D10*
%TO.C,R434*%
X191148580Y-117411000D03*
X191148580Y-115761000D03*
%TD*%
D11*
%TO.C,C231*%
X313716580Y-153289000D03*
X312166580Y-153289000D03*
%TD*%
D14*
%TO.C,D202*%
X186754580Y-225970000D03*
X188354580Y-225970000D03*
X189954580Y-225970000D03*
X189954580Y-221070000D03*
X188354580Y-221070000D03*
X186754580Y-221070000D03*
%TD*%
D11*
%TO.C,C108*%
X59830000Y-118237000D03*
X58280000Y-118237000D03*
%TD*%
D17*
%TO.C,SW106*%
X87222000Y-203240000D03*
X99722000Y-203240000D03*
X87222000Y-208240000D03*
X99722000Y-208240000D03*
%TD*%
D13*
%TO.C,C426*%
X192786580Y-142875000D03*
X194336580Y-142875000D03*
%TD*%
D11*
%TO.C,C440*%
X336322580Y-115824000D03*
X334772580Y-115824000D03*
%TD*%
%TO.C,C224*%
X338989580Y-178689000D03*
X337439580Y-178689000D03*
%TD*%
%TO.C,C239*%
X313843580Y-127889000D03*
X312293580Y-127889000D03*
%TD*%
D15*
%TO.C,Q102*%
X79707500Y-83759000D03*
X79707500Y-85659000D03*
X81582500Y-84709000D03*
%TD*%
D13*
%TO.C,C419*%
X218186580Y-168275000D03*
X219736580Y-168275000D03*
%TD*%
D16*
%TO.C,U455*%
X314292080Y-66736000D03*
X314292080Y-64836000D03*
D15*
X316292080Y-65786000D03*
%TD*%
D38*
%TO.C,H111*%
X215900000Y-25500000D03*
%TD*%
D33*
%TO.C,R103*%
X64937500Y-88725000D03*
X63112500Y-88725000D03*
%TD*%
D11*
%TO.C,C209*%
X161316580Y-204089000D03*
X159766580Y-204089000D03*
%TD*%
D10*
%TO.C,R442*%
X191148580Y-92011000D03*
X191148580Y-90361000D03*
%TD*%
D16*
%TO.C,U430*%
X288892080Y-142936000D03*
X288892080Y-141036000D03*
D15*
X290892080Y-141986000D03*
%TD*%
D11*
%TO.C,C455*%
X310922580Y-64897000D03*
X309372580Y-64897000D03*
%TD*%
D12*
%TO.C,R239*%
X290017580Y-126238000D03*
X288367580Y-126238000D03*
%TD*%
D16*
%TO.C,U448*%
X339692080Y-92136000D03*
X339692080Y-90236000D03*
D15*
X341692080Y-91186000D03*
%TD*%
%TO.C,U460*%
X240217080Y-39436000D03*
X240217080Y-41336000D03*
D16*
X238217080Y-40386000D03*
%TD*%
D14*
%TO.C,D210*%
X186754580Y-200570000D03*
X188354580Y-200570000D03*
X189954580Y-200570000D03*
X189954580Y-195670000D03*
X188354580Y-195670000D03*
X186754580Y-195670000D03*
%TD*%
D11*
%TO.C,C438*%
X285522580Y-115824000D03*
X283972580Y-115824000D03*
%TD*%
D10*
%TO.C,R458*%
X191148580Y-41211000D03*
X191148580Y-39561000D03*
%TD*%
D12*
%TO.C,R203*%
X213817580Y-228092000D03*
X212167580Y-228092000D03*
%TD*%
D11*
%TO.C,C223*%
X313843580Y-178689000D03*
X312293580Y-178689000D03*
%TD*%
D15*
%TO.C,U411*%
X214817080Y-191836000D03*
X214817080Y-193736000D03*
D16*
X212817080Y-192786000D03*
%TD*%
D11*
%TO.C,C205*%
X262916580Y-229743000D03*
X261366580Y-229743000D03*
%TD*%
D15*
%TO.C,U443*%
X214817080Y-90236000D03*
X214817080Y-92136000D03*
D16*
X212817080Y-91186000D03*
%TD*%
D14*
%TO.C,D254*%
X288354580Y-73570000D03*
X289954580Y-73570000D03*
X291554580Y-73570000D03*
X291554580Y-68670000D03*
X289954580Y-68670000D03*
X288354580Y-68670000D03*
%TD*%
D11*
%TO.C,C304*%
X246774000Y-52451000D03*
X245224000Y-52451000D03*
%TD*%
D12*
%TO.C,R107*%
X103025000Y-104300000D03*
X101375000Y-104300000D03*
%TD*%
D11*
%TO.C,C437*%
X260122580Y-115824000D03*
X258572580Y-115824000D03*
%TD*%
D12*
%TO.C,R221*%
X239217580Y-177038000D03*
X237567580Y-177038000D03*
%TD*%
%TO.C,R225*%
X340690580Y-177038000D03*
X339040580Y-177038000D03*
%TD*%
D16*
%TO.C,U405*%
X263492080Y-219136000D03*
X263492080Y-217236000D03*
D15*
X265492080Y-218186000D03*
%TD*%
D14*
%TO.C,D256*%
X339154580Y-73570000D03*
X340754580Y-73570000D03*
X342354580Y-73570000D03*
X342354580Y-68670000D03*
X340754580Y-68670000D03*
X339154580Y-68670000D03*
%TD*%
D11*
%TO.C,C432*%
X336322580Y-141097000D03*
X334772580Y-141097000D03*
%TD*%
D15*
%TO.C,U427*%
X214944080Y-140909000D03*
X214944080Y-142809000D03*
D16*
X212944080Y-141859000D03*
%TD*%
D10*
%TO.C,R419*%
X216548580Y-168211000D03*
X216548580Y-166561000D03*
%TD*%
D18*
%TO.C,R464*%
X337960580Y-39561000D03*
X337960580Y-41211000D03*
%TD*%
D10*
%TO.C,R418*%
X191148580Y-168211000D03*
X191148580Y-166561000D03*
%TD*%
D18*
%TO.C,R455*%
X312560580Y-64961000D03*
X312560580Y-66611000D03*
%TD*%
%TO.C,R407*%
X312560580Y-217361000D03*
X312560580Y-219011000D03*
%TD*%
D44*
%TO.C,J101*%
X56850000Y-87980000D03*
D45*
X56850000Y-82200000D03*
D46*
X58000000Y-81740000D03*
X58000000Y-82540000D03*
X58000000Y-83840000D03*
X58000000Y-84840000D03*
X58000000Y-85340000D03*
X58000000Y-86340000D03*
X58000000Y-87640000D03*
X58000000Y-88440000D03*
X58000000Y-88140000D03*
X58000000Y-87340000D03*
X58000000Y-86840000D03*
X58000000Y-85840000D03*
X58000000Y-84340000D03*
X58000000Y-83340000D03*
X58000000Y-82840000D03*
X58000000Y-82040000D03*
D47*
X57425000Y-89415000D03*
X57425000Y-80765000D03*
D48*
X53150000Y-89415000D03*
X53150000Y-80765000D03*
%TD*%
D15*
%TO.C,U402*%
X189417080Y-217236000D03*
X189417080Y-219136000D03*
D16*
X187417080Y-218186000D03*
%TD*%
D17*
%TO.C,SW109*%
X87095000Y-63460000D03*
X99595000Y-63460000D03*
X87095000Y-58460000D03*
X99595000Y-58460000D03*
%TD*%
D11*
%TO.C,C456*%
X335941580Y-64897000D03*
X334391580Y-64897000D03*
%TD*%
D16*
%TO.C,U416*%
X339692080Y-193736000D03*
X339692080Y-191836000D03*
D15*
X341692080Y-192786000D03*
%TD*%
D10*
%TO.C,R409*%
X165748580Y-193611000D03*
X165748580Y-191961000D03*
%TD*%
D22*
%TO.C,U304*%
X248279580Y-60012500D03*
X248929580Y-60012500D03*
X249579580Y-60012500D03*
X250229580Y-60012500D03*
X250879580Y-60012500D03*
X251529580Y-60012500D03*
X252179580Y-60012500D03*
X252829580Y-60012500D03*
X253479580Y-60012500D03*
X254129580Y-60012500D03*
X254779580Y-60012500D03*
X255429580Y-60012500D03*
X255429580Y-54287500D03*
X254779580Y-54287500D03*
X254129580Y-54287500D03*
X253479580Y-54287500D03*
X252829580Y-54287500D03*
X252179580Y-54287500D03*
X251529580Y-54287500D03*
X250879580Y-54287500D03*
X250229580Y-54287500D03*
X249579580Y-54287500D03*
X248929580Y-54287500D03*
X248279580Y-54287500D03*
%TD*%
D16*
%TO.C,U415*%
X314165080Y-193736000D03*
X314165080Y-191836000D03*
D15*
X316165080Y-192786000D03*
%TD*%
D12*
%TO.C,R311*%
X109791000Y-68580000D03*
X108141000Y-68580000D03*
%TD*%
D18*
%TO.C,R447*%
X313068580Y-90361000D03*
X313068580Y-92011000D03*
%TD*%
D12*
%TO.C,R231*%
X289890580Y-151638000D03*
X288240580Y-151638000D03*
%TD*%
D14*
%TO.C,D206*%
X288354580Y-225970000D03*
X289954580Y-225970000D03*
X291554580Y-225970000D03*
X291554580Y-221070000D03*
X289954580Y-221070000D03*
X288354580Y-221070000D03*
%TD*%
D13*
%TO.C,C443*%
X218186580Y-91948000D03*
X219736580Y-91948000D03*
%TD*%
%TO.C,C112*%
X70216200Y-233665000D03*
X71766200Y-233665000D03*
%TD*%
D49*
%TO.C,LED101*%
X62001500Y-92456000D03*
X60426500Y-92456000D03*
%TD*%
D12*
%TO.C,R248*%
X315417580Y-100838000D03*
X313767580Y-100838000D03*
%TD*%
D11*
%TO.C,C238*%
X288316580Y-127889000D03*
X286766580Y-127889000D03*
%TD*%
D19*
%TO.C,H106*%
X150254580Y-133350000D03*
%TD*%
D10*
%TO.C,R410*%
X191148580Y-193484000D03*
X191148580Y-191834000D03*
%TD*%
D11*
%TO.C,C221*%
X263043580Y-178689000D03*
X261493580Y-178689000D03*
%TD*%
D12*
%TO.C,R232*%
X315417580Y-151638000D03*
X313767580Y-151638000D03*
%TD*%
D11*
%TO.C,C203*%
X212116580Y-229743000D03*
X210566580Y-229743000D03*
%TD*%
D18*
%TO.C,R414*%
X287160580Y-191961000D03*
X287160580Y-193611000D03*
%TD*%
D15*
%TO.C,U410*%
X189417080Y-191836000D03*
X189417080Y-193736000D03*
D16*
X187417080Y-192786000D03*
%TD*%
D11*
%TO.C,C463*%
X310922580Y-39370000D03*
X309372580Y-39370000D03*
%TD*%
D12*
%TO.C,R207*%
X315417580Y-228092000D03*
X313767580Y-228092000D03*
%TD*%
D17*
%TO.C,SW104*%
X109447000Y-203240000D03*
X121947000Y-203240000D03*
X121947000Y-208240000D03*
X109447000Y-208240000D03*
%TD*%
D12*
%TO.C,R226*%
X163017580Y-151638000D03*
X161367580Y-151638000D03*
%TD*%
D13*
%TO.C,C420*%
X243586580Y-168275000D03*
X245136580Y-168275000D03*
%TD*%
D24*
%TO.C,R120*%
X68515200Y-235214400D03*
X70165200Y-235214400D03*
%TD*%
D11*
%TO.C,C448*%
X336322580Y-90551000D03*
X334772580Y-90551000D03*
%TD*%
D16*
%TO.C,U446*%
X288892080Y-92136000D03*
X288892080Y-90236000D03*
D15*
X290892080Y-91186000D03*
%TD*%
D14*
%TO.C,D201*%
X161354580Y-225970000D03*
X162954580Y-225970000D03*
X164554580Y-225970000D03*
X164554580Y-221070000D03*
X162954580Y-221070000D03*
X161354580Y-221070000D03*
%TD*%
D18*
%TO.C,R415*%
X312433580Y-191961000D03*
X312433580Y-193611000D03*
%TD*%
D12*
%TO.C,R253*%
X239217580Y-75438000D03*
X237567580Y-75438000D03*
%TD*%
D11*
%TO.C,C250*%
X186589580Y-77089000D03*
X185039580Y-77089000D03*
%TD*%
D12*
%TO.C,R235*%
X188417580Y-126238000D03*
X186767580Y-126238000D03*
%TD*%
D14*
%TO.C,D255*%
X313754580Y-73570000D03*
X315354580Y-73570000D03*
X316954580Y-73570000D03*
X316954580Y-68670000D03*
X315354580Y-68670000D03*
X313754580Y-68670000D03*
%TD*%
D12*
%TO.C,R218*%
X162890580Y-177038000D03*
X161240580Y-177038000D03*
%TD*%
D14*
%TO.C,D234*%
X186754580Y-124370000D03*
X188354580Y-124370000D03*
X189954580Y-124370000D03*
X189954580Y-119470000D03*
X188354580Y-119470000D03*
X186754580Y-119470000D03*
%TD*%
D18*
%TO.C,R405*%
X261760580Y-217361000D03*
X261760580Y-219011000D03*
%TD*%
D15*
%TO.C,U434*%
X189417080Y-115636000D03*
X189417080Y-117536000D03*
D16*
X187417080Y-116586000D03*
%TD*%
D11*
%TO.C,C229*%
X262916580Y-153289000D03*
X261366580Y-153289000D03*
%TD*%
D24*
%TO.C,R110*%
X79693000Y-92329000D03*
X81343000Y-92329000D03*
%TD*%
D11*
%TO.C,C421*%
X260122580Y-166624000D03*
X258572580Y-166624000D03*
%TD*%
D24*
%TO.C,R301*%
X248616580Y-150241000D03*
X250266580Y-150241000D03*
%TD*%
D14*
%TO.C,D229*%
X262954580Y-149770000D03*
X264554580Y-149770000D03*
X266154580Y-149770000D03*
X266154580Y-144870000D03*
X264554580Y-144870000D03*
X262954580Y-144870000D03*
%TD*%
D13*
%TO.C,C425*%
X168402580Y-142875000D03*
X169952580Y-142875000D03*
%TD*%
D14*
%TO.C,D214*%
X288354580Y-200570000D03*
X289954580Y-200570000D03*
X291554580Y-200570000D03*
X291554580Y-195670000D03*
X289954580Y-195670000D03*
X288354580Y-195670000D03*
%TD*%
D13*
%TO.C,C404*%
X243205580Y-219456000D03*
X244755580Y-219456000D03*
%TD*%
D15*
%TO.C,U458*%
X189417080Y-39436000D03*
X189417080Y-41336000D03*
D16*
X187417080Y-40386000D03*
%TD*%
D11*
%TO.C,C230*%
X288189580Y-153289000D03*
X286639580Y-153289000D03*
%TD*%
D18*
%TO.C,R440*%
X337960580Y-115761000D03*
X337960580Y-117411000D03*
%TD*%
D14*
%TO.C,D237*%
X262954580Y-124370000D03*
X264554580Y-124370000D03*
X266154580Y-124370000D03*
X266154580Y-119470000D03*
X264554580Y-119470000D03*
X262954580Y-119470000D03*
%TD*%
D12*
%TO.C,R238*%
X264617580Y-126238000D03*
X262967580Y-126238000D03*
%TD*%
D11*
%TO.C,C416*%
X336322580Y-192024000D03*
X334772580Y-192024000D03*
%TD*%
D12*
%TO.C,R245*%
X239217580Y-100838000D03*
X237567580Y-100838000D03*
%TD*%
D14*
%TO.C,D232*%
X339154580Y-149770000D03*
X340754580Y-149770000D03*
X342354580Y-149770000D03*
X342354580Y-144870000D03*
X340754580Y-144870000D03*
X339154580Y-144870000D03*
%TD*%
%TO.C,D203*%
X212154580Y-225970000D03*
X213754580Y-225970000D03*
X215354580Y-225970000D03*
X215354580Y-221070000D03*
X213754580Y-221070000D03*
X212154580Y-221070000D03*
%TD*%
D18*
%TO.C,R423*%
X312560580Y-166561000D03*
X312560580Y-168211000D03*
%TD*%
D13*
%TO.C,C451*%
X218694580Y-66675000D03*
X220244580Y-66675000D03*
%TD*%
D18*
%TO.C,R461*%
X261887580Y-39561000D03*
X261887580Y-41211000D03*
%TD*%
D11*
%TO.C,C228*%
X237643580Y-153289000D03*
X236093580Y-153289000D03*
%TD*%
%TO.C,C218*%
X186589580Y-178689000D03*
X185039580Y-178689000D03*
%TD*%
D14*
%TO.C,D259*%
X212154580Y-48170000D03*
X213754580Y-48170000D03*
X215354580Y-48170000D03*
X215354580Y-43270000D03*
X213754580Y-43270000D03*
X212154580Y-43270000D03*
%TD*%
D50*
%TO.C,J105*%
X124932000Y-179069000D03*
X56932000Y-142749000D03*
X124932000Y-142749000D03*
X56932000Y-179069000D03*
D39*
X117282000Y-128709000D03*
D40*
X117282000Y-131249000D03*
X117282000Y-133789000D03*
X117282000Y-136329000D03*
%TD*%
D16*
%TO.C,U414*%
X288892080Y-193736000D03*
X288892080Y-191836000D03*
D15*
X290892080Y-192786000D03*
%TD*%
D13*
%TO.C,C110*%
X70216200Y-232141000D03*
X71766200Y-232141000D03*
%TD*%
D18*
%TO.C,R446*%
X287160580Y-90361000D03*
X287160580Y-92011000D03*
%TD*%
D14*
%TO.C,D224*%
X339154580Y-175170000D03*
X340754580Y-175170000D03*
X342354580Y-175170000D03*
X342354580Y-170270000D03*
X340754580Y-170270000D03*
X339154580Y-170270000D03*
%TD*%
D15*
%TO.C,U425*%
X165033080Y-141036000D03*
X165033080Y-142936000D03*
D16*
X163033080Y-141986000D03*
%TD*%
D19*
%TO.C,H103*%
X353454580Y-133350000D03*
%TD*%
D15*
%TO.C,U436*%
X240217080Y-115636000D03*
X240217080Y-117536000D03*
D16*
X238217080Y-116586000D03*
%TD*%
D15*
%TO.C,U449*%
X164017080Y-64836000D03*
X164017080Y-66736000D03*
D16*
X162017080Y-65786000D03*
%TD*%
D13*
%TO.C,C434*%
X192786580Y-117348000D03*
X194336580Y-117348000D03*
%TD*%
D11*
%TO.C,C302*%
X246774000Y-154051000D03*
X245224000Y-154051000D03*
%TD*%
D12*
%TO.C,R244*%
X213690580Y-100838000D03*
X212040580Y-100838000D03*
%TD*%
D10*
%TO.C,R459*%
X216548580Y-41211000D03*
X216548580Y-39561000D03*
%TD*%
D13*
%TO.C,C266*%
X87490000Y-96647000D03*
X89040000Y-96647000D03*
%TD*%
D10*
%TO.C,R443*%
X216548580Y-92011000D03*
X216548580Y-90361000D03*
%TD*%
D12*
%TO.C,R237*%
X239090580Y-126238000D03*
X237440580Y-126238000D03*
%TD*%
%TO.C,R260*%
X213817580Y-50038000D03*
X212167580Y-50038000D03*
%TD*%
D16*
%TO.C,U463*%
X314292080Y-41336000D03*
X314292080Y-39436000D03*
D15*
X316292080Y-40386000D03*
%TD*%
D18*
%TO.C,R437*%
X261760580Y-115761000D03*
X261760580Y-117411000D03*
%TD*%
D24*
%TO.C,R106*%
X101325000Y-109050000D03*
X102975000Y-109050000D03*
%TD*%
D11*
%TO.C,C408*%
X336322580Y-217424000D03*
X334772580Y-217424000D03*
%TD*%
D10*
%TO.C,R452*%
X241948580Y-66611000D03*
X241948580Y-64961000D03*
%TD*%
D11*
%TO.C,C415*%
X310795580Y-191897000D03*
X309245580Y-191897000D03*
%TD*%
%TO.C,C464*%
X336322580Y-39370000D03*
X334772580Y-39370000D03*
%TD*%
D13*
%TO.C,C436*%
X243586580Y-117475000D03*
X245136580Y-117475000D03*
%TD*%
%TO.C,C433*%
X167386580Y-117475000D03*
X168936580Y-117475000D03*
%TD*%
D14*
%TO.C,D215*%
X313627580Y-200570000D03*
X315227580Y-200570000D03*
X316827580Y-200570000D03*
X316827580Y-195670000D03*
X315227580Y-195670000D03*
X313627580Y-195670000D03*
%TD*%
D38*
%TO.C,H114*%
X215900000Y-242000000D03*
%TD*%
D51*
%TO.C,LED102*%
X63728500Y-92456000D03*
X65303500Y-92456000D03*
%TD*%
D12*
%TO.C,R229*%
X239217580Y-151638000D03*
X237567580Y-151638000D03*
%TD*%
D18*
%TO.C,R408*%
X337960580Y-217361000D03*
X337960580Y-219011000D03*
%TD*%
D12*
%TO.C,R222*%
X264617580Y-177038000D03*
X262967580Y-177038000D03*
%TD*%
%TO.C,R113*%
X62039000Y-90678000D03*
X60389000Y-90678000D03*
%TD*%
D11*
%TO.C,C248*%
X339243580Y-102489000D03*
X337693580Y-102489000D03*
%TD*%
D19*
%TO.C,H105*%
X251854580Y-234950000D03*
%TD*%
D11*
%TO.C,C405*%
X260122580Y-217424000D03*
X258572580Y-217424000D03*
%TD*%
D15*
%TO.C,U441*%
X164017080Y-90236000D03*
X164017080Y-92136000D03*
D16*
X162017080Y-91186000D03*
%TD*%
D11*
%TO.C,C252*%
X237516580Y-77089000D03*
X235966580Y-77089000D03*
%TD*%
D14*
%TO.C,D219*%
X212154580Y-175170000D03*
X213754580Y-175170000D03*
X215354580Y-175170000D03*
X215354580Y-170270000D03*
X213754580Y-170270000D03*
X212154580Y-170270000D03*
%TD*%
D11*
%TO.C,C447*%
X311430580Y-90551000D03*
X309880580Y-90551000D03*
%TD*%
D18*
%TO.C,R115*%
X53975000Y-127699000D03*
X53975000Y-129349000D03*
%TD*%
D11*
%TO.C,C305*%
X103137000Y-111887000D03*
X101587000Y-111887000D03*
%TD*%
D18*
%TO.C,R429*%
X261760580Y-141161000D03*
X261760580Y-142811000D03*
%TD*%
D13*
%TO.C,C435*%
X218186580Y-117348000D03*
X219736580Y-117348000D03*
%TD*%
D52*
%TO.C,C105*%
X68200000Y-86677200D03*
X68200000Y-88227200D03*
%TD*%
D10*
%TO.C,R411*%
X216548580Y-193484000D03*
X216548580Y-191834000D03*
%TD*%
D11*
%TO.C,C232*%
X339116580Y-153289000D03*
X337566580Y-153289000D03*
%TD*%
D16*
%TO.C,U421*%
X263492080Y-168336000D03*
X263492080Y-166436000D03*
D15*
X265492080Y-167386000D03*
%TD*%
D39*
%TO.C,OLED101*%
X77319800Y-233125800D03*
D40*
X77319800Y-230585800D03*
X77319800Y-228045800D03*
X77319800Y-225505800D03*
%TD*%
D12*
%TO.C,R215*%
X289890580Y-202438000D03*
X288240580Y-202438000D03*
%TD*%
D14*
%TO.C,D216*%
X339154580Y-200570000D03*
X340754580Y-200570000D03*
X342354580Y-200570000D03*
X342354580Y-195670000D03*
X340754580Y-195670000D03*
X339154580Y-195670000D03*
%TD*%
D13*
%TO.C,C111*%
X117309600Y-126060200D03*
X118859600Y-126060200D03*
%TD*%
D18*
%TO.C,R445*%
X261760580Y-90361000D03*
X261760580Y-92011000D03*
%TD*%
D12*
%TO.C,R209*%
X162890580Y-202438000D03*
X161240580Y-202438000D03*
%TD*%
%TO.C,R228*%
X213817580Y-151638000D03*
X212167580Y-151638000D03*
%TD*%
%TO.C,R230*%
X264617580Y-151638000D03*
X262967580Y-151638000D03*
%TD*%
D18*
%TO.C,R422*%
X287160580Y-166561000D03*
X287160580Y-168211000D03*
%TD*%
D38*
%TO.C,H113*%
X360000000Y-242000000D03*
%TD*%
D13*
%TO.C,C412*%
X243586580Y-193675000D03*
X245136580Y-193675000D03*
%TD*%
D18*
%TO.C,R448*%
X337960580Y-90361000D03*
X337960580Y-92011000D03*
%TD*%
D14*
%TO.C,D227*%
X212154580Y-149770000D03*
X213754580Y-149770000D03*
X215354580Y-149770000D03*
X215354580Y-144870000D03*
X213754580Y-144870000D03*
X212154580Y-144870000D03*
%TD*%
%TO.C,D257*%
X161354580Y-48170000D03*
X162954580Y-48170000D03*
X164554580Y-48170000D03*
X164554580Y-43270000D03*
X162954580Y-43270000D03*
X161354580Y-43270000D03*
%TD*%
D16*
%TO.C,U438*%
X288892080Y-117536000D03*
X288892080Y-115636000D03*
D15*
X290892080Y-116586000D03*
%TD*%
D11*
%TO.C,C244*%
X237516580Y-102489000D03*
X235966580Y-102489000D03*
%TD*%
%TO.C,C253*%
X263043580Y-77089000D03*
X261493580Y-77089000D03*
%TD*%
D15*
%TO.C,U452*%
X240217080Y-64836000D03*
X240217080Y-66736000D03*
D16*
X238217080Y-65786000D03*
%TD*%
D13*
%TO.C,C427*%
X218313580Y-142621000D03*
X219863580Y-142621000D03*
%TD*%
D16*
%TO.C,U413*%
X263365080Y-193736000D03*
X263365080Y-191836000D03*
D15*
X265365080Y-192786000D03*
%TD*%
D18*
%TO.C,R430*%
X287160580Y-141161000D03*
X287160580Y-142811000D03*
%TD*%
D11*
%TO.C,C214*%
X288189580Y-204089000D03*
X286639580Y-204089000D03*
%TD*%
D53*
%TO.C,F101*%
X55800000Y-73800000D03*
X55800000Y-71000000D03*
%TD*%
D11*
%TO.C,C226*%
X186589580Y-153289000D03*
X185039580Y-153289000D03*
%TD*%
D18*
%TO.C,R438*%
X287160580Y-115761000D03*
X287160580Y-117411000D03*
%TD*%
D24*
%TO.C,R309*%
X121349000Y-198120000D03*
X122999000Y-198120000D03*
%TD*%
D11*
%TO.C,C220*%
X237516580Y-178689000D03*
X235966580Y-178689000D03*
%TD*%
D12*
%TO.C,R257*%
X340690580Y-75438000D03*
X339040580Y-75438000D03*
%TD*%
D16*
%TO.C,U439*%
X314292080Y-117536000D03*
X314292080Y-115636000D03*
D15*
X316292080Y-116586000D03*
%TD*%
D24*
%TO.C,R118*%
X70173200Y-230570000D03*
X71823200Y-230570000D03*
%TD*%
D12*
%TO.C,R119*%
X59023200Y-218060000D03*
X57373200Y-218060000D03*
%TD*%
D15*
%TO.C,U419*%
X214817080Y-166436000D03*
X214817080Y-168336000D03*
D16*
X212817080Y-167386000D03*
%TD*%
D15*
%TO.C,U401*%
X163954080Y-217236000D03*
X163954080Y-219136000D03*
D16*
X161954080Y-218186000D03*
%TD*%
D18*
%TO.C,R421*%
X261760580Y-166561000D03*
X261760580Y-168211000D03*
%TD*%
%TO.C,R462*%
X287160580Y-39561000D03*
X287160580Y-41211000D03*
%TD*%
D19*
%TO.C,H102*%
X150254580Y-234950000D03*
%TD*%
D12*
%TO.C,R111*%
X103025000Y-101100000D03*
X101375000Y-101100000D03*
%TD*%
D54*
%TO.C,J103*%
X52500000Y-230650000D03*
X52500000Y-229550000D03*
X52500000Y-228450000D03*
X52500000Y-227350000D03*
X52500000Y-226250000D03*
X52500000Y-225150000D03*
X52500000Y-224050000D03*
X52500000Y-222950000D03*
D55*
X65200000Y-229250000D03*
D56*
X53000000Y-234200000D03*
D57*
X53000000Y-220850000D03*
D55*
X65200000Y-224300000D03*
D58*
X65300000Y-232250000D03*
%TD*%
D10*
%TO.C,R403*%
X216548580Y-219011000D03*
X216548580Y-217361000D03*
%TD*%
D12*
%TO.C,R216*%
X315163580Y-202438000D03*
X313513580Y-202438000D03*
%TD*%
D11*
%TO.C,C423*%
X310922580Y-166624000D03*
X309372580Y-166624000D03*
%TD*%
D10*
%TO.C,R412*%
X241948580Y-193484000D03*
X241948580Y-191834000D03*
%TD*%
D14*
%TO.C,D263*%
X313754580Y-48170000D03*
X315354580Y-48170000D03*
X316954580Y-48170000D03*
X316954580Y-43270000D03*
X315354580Y-43270000D03*
X313754580Y-43270000D03*
%TD*%
%TO.C,D205*%
X262954580Y-225970000D03*
X264554580Y-225970000D03*
X266154580Y-225970000D03*
X266154580Y-221070000D03*
X264554580Y-221070000D03*
X262954580Y-221070000D03*
%TD*%
D13*
%TO.C,C458*%
X192786580Y-41275000D03*
X194336580Y-41275000D03*
%TD*%
D14*
%TO.C,D235*%
X212154580Y-124370000D03*
X213754580Y-124370000D03*
X215354580Y-124370000D03*
X215354580Y-119470000D03*
X213754580Y-119470000D03*
X212154580Y-119470000D03*
%TD*%
D11*
%TO.C,C263*%
X313716580Y-51689000D03*
X312166580Y-51689000D03*
%TD*%
%TO.C,C424*%
X336322580Y-166624000D03*
X334772580Y-166624000D03*
%TD*%
D10*
%TO.C,R460*%
X241948580Y-41211000D03*
X241948580Y-39561000D03*
%TD*%
D14*
%TO.C,D220*%
X237554580Y-175170000D03*
X239154580Y-175170000D03*
X240754580Y-175170000D03*
X240754580Y-170270000D03*
X239154580Y-170270000D03*
X237554580Y-170270000D03*
%TD*%
D24*
%TO.C,R213*%
X81090000Y-96647000D03*
X82740000Y-96647000D03*
%TD*%
D17*
%TO.C,SW105*%
X77370000Y-203240000D03*
X64870000Y-203240000D03*
X77370000Y-208240000D03*
X64870000Y-208240000D03*
%TD*%
D12*
%TO.C,R227*%
X188290580Y-151638000D03*
X186640580Y-151638000D03*
%TD*%
D13*
%TO.C,C109*%
X82283000Y-112014000D03*
X83833000Y-112014000D03*
%TD*%
D15*
%TO.C,U451*%
X215325080Y-64836000D03*
X215325080Y-66736000D03*
D16*
X213325080Y-65786000D03*
%TD*%
D11*
%TO.C,C208*%
X338989580Y-229743000D03*
X337439580Y-229743000D03*
%TD*%
D14*
%TO.C,D212*%
X237554580Y-200570000D03*
X239154580Y-200570000D03*
X240754580Y-200570000D03*
X240754580Y-195670000D03*
X239154580Y-195670000D03*
X237554580Y-195670000D03*
%TD*%
D11*
%TO.C,C256*%
X338989580Y-77089000D03*
X337439580Y-77089000D03*
%TD*%
D14*
%TO.C,D226*%
X186754580Y-149770000D03*
X188354580Y-149770000D03*
X189954580Y-149770000D03*
X189954580Y-144870000D03*
X188354580Y-144870000D03*
X186754580Y-144870000D03*
%TD*%
D12*
%TO.C,R224*%
X315417580Y-177038000D03*
X313767580Y-177038000D03*
%TD*%
D38*
%TO.C,H110*%
X59000000Y-25400000D03*
%TD*%
D18*
%TO.C,R431*%
X312560580Y-141161000D03*
X312560580Y-142811000D03*
%TD*%
D11*
%TO.C,C430*%
X285522580Y-141097000D03*
X283972580Y-141097000D03*
%TD*%
D22*
%TO.C,U305*%
X104629000Y-119448500D03*
X105279000Y-119448500D03*
X105929000Y-119448500D03*
X106579000Y-119448500D03*
X107229000Y-119448500D03*
X107879000Y-119448500D03*
X108529000Y-119448500D03*
X109179000Y-119448500D03*
X109829000Y-119448500D03*
X110479000Y-119448500D03*
X111129000Y-119448500D03*
X111779000Y-119448500D03*
X111779000Y-113723500D03*
X111129000Y-113723500D03*
X110479000Y-113723500D03*
X109829000Y-113723500D03*
X109179000Y-113723500D03*
X108529000Y-113723500D03*
X107879000Y-113723500D03*
X107229000Y-113723500D03*
X106579000Y-113723500D03*
X105929000Y-113723500D03*
X105279000Y-113723500D03*
X104629000Y-113723500D03*
%TD*%
D11*
%TO.C,C225*%
X161316580Y-153289000D03*
X159766580Y-153289000D03*
%TD*%
D13*
%TO.C,C457*%
X167513580Y-41275000D03*
X169063580Y-41275000D03*
%TD*%
D14*
%TO.C,D249*%
X161354580Y-73570000D03*
X162954580Y-73570000D03*
X164554580Y-73570000D03*
X164554580Y-68670000D03*
X162954580Y-68670000D03*
X161354580Y-68670000D03*
%TD*%
D11*
%TO.C,C407*%
X310922580Y-217424000D03*
X309372580Y-217424000D03*
%TD*%
D15*
%TO.C,U433*%
X164017080Y-115636000D03*
X164017080Y-117536000D03*
D16*
X162017080Y-116586000D03*
%TD*%
D11*
%TO.C,C258*%
X186589580Y-51689000D03*
X185039580Y-51689000D03*
%TD*%
%TO.C,C235*%
X211989580Y-127889000D03*
X210439580Y-127889000D03*
%TD*%
%TO.C,C211*%
X212116580Y-204089000D03*
X210566580Y-204089000D03*
%TD*%
D24*
%TO.C,R114*%
X63691000Y-90678000D03*
X65341000Y-90678000D03*
%TD*%
D10*
%TO.C,R116*%
X69645000Y-223822000D03*
X69645000Y-222172000D03*
%TD*%
D11*
%TO.C,C249*%
X161189580Y-77089000D03*
X159639580Y-77089000D03*
%TD*%
D16*
%TO.C,U429*%
X263492080Y-142936000D03*
X263492080Y-141036000D03*
D15*
X265492080Y-141986000D03*
%TD*%
D10*
%TO.C,R428*%
X241948580Y-142811000D03*
X241948580Y-141161000D03*
%TD*%
D13*
%TO.C,C402*%
X192646580Y-219456000D03*
X194196580Y-219456000D03*
%TD*%
D12*
%TO.C,R252*%
X214325580Y-75438000D03*
X212675580Y-75438000D03*
%TD*%
D14*
%TO.C,D258*%
X186754580Y-48170000D03*
X188354580Y-48170000D03*
X189954580Y-48170000D03*
X189954580Y-43270000D03*
X188354580Y-43270000D03*
X186754580Y-43270000D03*
%TD*%
D13*
%TO.C,C428*%
X243586580Y-142748000D03*
X245136580Y-142748000D03*
%TD*%
D10*
%TO.C,R451*%
X217056580Y-66611000D03*
X217056580Y-64961000D03*
%TD*%
D14*
%TO.C,D228*%
X237554580Y-149770000D03*
X239154580Y-149770000D03*
X240754580Y-149770000D03*
X240754580Y-144870000D03*
X239154580Y-144870000D03*
X237554580Y-144870000D03*
%TD*%
D10*
%TO.C,R402*%
X191097780Y-219011000D03*
X191097780Y-217361000D03*
%TD*%
D15*
%TO.C,U428*%
X240217080Y-141036000D03*
X240217080Y-142936000D03*
D16*
X238217080Y-141986000D03*
%TD*%
D59*
X61341000Y-113157000D03*
X59944000Y-96266000D03*
X221225000Y-219475000D03*
X239040000Y-95760000D03*
X106172000Y-117475000D03*
X236400000Y-192775000D03*
X158150000Y-204110000D03*
X234275000Y-229725000D03*
X234490000Y-178690000D03*
X282410000Y-141090000D03*
X289925000Y-197475000D03*
X332950000Y-192025000D03*
X310320000Y-77080000D03*
X318560000Y-91200000D03*
X307700000Y-191900000D03*
X343925000Y-218200000D03*
X185520000Y-116610000D03*
X221220000Y-117350000D03*
X67698200Y-232710000D03*
X318973200Y-45720000D03*
X315360000Y-95780000D03*
X236626400Y-39217600D03*
X186842400Y-38760400D03*
X264427580Y-45085000D03*
X247190000Y-66680000D03*
X236425000Y-218125000D03*
X333340000Y-115830000D03*
X315200000Y-197400000D03*
X188375000Y-222850000D03*
X113025000Y-119450000D03*
X210960000Y-116580000D03*
X185600000Y-218200000D03*
X282420000Y-166620000D03*
X210880000Y-91170000D03*
X307840000Y-64920000D03*
X318110000Y-65800000D03*
X259486400Y-51663600D03*
X289780000Y-95780000D03*
X289940000Y-121310000D03*
X73475000Y-84275000D03*
X234289600Y-51714400D03*
X285180000Y-77090000D03*
X239064800Y-44958000D03*
X335925000Y-204100000D03*
X106553000Y-115443000D03*
X250203580Y-109220000D03*
X158100000Y-229725000D03*
X257110000Y-115810000D03*
X264590000Y-70360000D03*
X188170000Y-197520000D03*
X245125000Y-195150000D03*
X260010000Y-178690000D03*
X73505800Y-232166400D03*
X335930000Y-77090000D03*
X340730000Y-70310000D03*
X332960000Y-64910000D03*
X267175000Y-192800000D03*
X120450000Y-126050000D03*
X66600000Y-83850000D03*
X64375000Y-119800000D03*
X318080000Y-142020000D03*
X170470000Y-117500000D03*
X158180000Y-102500000D03*
X267310000Y-116600000D03*
X292730000Y-167420000D03*
X336170000Y-102490000D03*
X292700000Y-218250000D03*
X343060000Y-65810000D03*
X318090000Y-116590000D03*
X195820000Y-91940000D03*
X183590000Y-127890000D03*
X267320000Y-167400000D03*
X285100000Y-153290000D03*
X333248000Y-39370000D03*
X264510000Y-121290000D03*
X213700000Y-146680000D03*
X282450000Y-217450000D03*
X257060000Y-90860000D03*
X160200000Y-167390000D03*
X239160000Y-146690000D03*
X307898800Y-39370000D03*
X256740000Y-110850000D03*
X221340000Y-91950000D03*
X208910000Y-102500000D03*
X307850000Y-141090000D03*
X333310000Y-141100000D03*
X340775000Y-222825000D03*
X82900000Y-106800000D03*
X343540000Y-142000000D03*
X310680000Y-178690000D03*
X52982600Y-219212400D03*
X170738800Y-39014400D03*
X195810000Y-142860000D03*
X292680000Y-116610000D03*
X292700000Y-192850000D03*
X310625000Y-229750000D03*
X315330000Y-121270000D03*
X92400000Y-102500000D03*
X183520000Y-178690000D03*
X87300000Y-93075000D03*
X246930000Y-142800000D03*
X256750000Y-212400000D03*
X335975000Y-229750000D03*
X267370000Y-65800000D03*
X185470000Y-65780000D03*
X72848200Y-225810000D03*
X285075000Y-204100000D03*
X211025000Y-218225000D03*
X340715600Y-45008800D03*
X239130000Y-171960000D03*
X211010000Y-141880000D03*
X58166000Y-96139000D03*
X162950000Y-71560000D03*
X66225000Y-111625000D03*
X158140400Y-51714400D03*
X183570000Y-102490000D03*
X195930000Y-193690000D03*
X333250000Y-217425000D03*
X340725000Y-197400000D03*
X247100000Y-168280000D03*
X234275000Y-204075000D03*
X246980000Y-117490000D03*
X85350000Y-112050000D03*
X307760000Y-166650000D03*
X236390000Y-141980000D03*
X183450000Y-229750000D03*
X336040000Y-153290000D03*
X183340000Y-77100000D03*
X250076580Y-58293000D03*
X340740000Y-95760000D03*
X213720000Y-171990000D03*
X315320000Y-171990000D03*
X195900000Y-66670000D03*
X289950000Y-222750000D03*
X267270000Y-91180000D03*
X264400000Y-197425000D03*
X211370000Y-65790000D03*
X160160000Y-116600000D03*
X264480000Y-172010000D03*
X188340000Y-172020000D03*
X259840000Y-102490000D03*
X257025000Y-217425000D03*
X208950000Y-229750000D03*
X171480000Y-142900000D03*
X318110000Y-167400000D03*
X208970000Y-153290000D03*
X236420000Y-167390000D03*
X162930000Y-147430000D03*
X209150000Y-178700000D03*
X243740000Y-103250000D03*
X335940400Y-51714400D03*
X239150000Y-222800000D03*
X310740000Y-127900000D03*
X257080000Y-141980000D03*
X170370000Y-193690000D03*
X88963500Y-109410500D03*
X282410000Y-115830000D03*
X293471600Y-45872400D03*
X53950000Y-133725000D03*
X315163200Y-44958000D03*
X78486000Y-112649000D03*
X246660000Y-92740000D03*
X260020000Y-77060000D03*
X170275000Y-219475000D03*
X318160400Y-40436800D03*
X264520000Y-146640000D03*
X310642000Y-51714400D03*
X289930000Y-172140000D03*
X208880000Y-127900000D03*
X67398578Y-226659622D03*
X285075000Y-229750000D03*
X213750000Y-197500000D03*
X285390000Y-102490000D03*
X73505800Y-233690400D03*
X243720000Y-154070000D03*
X236430000Y-116580000D03*
X213750000Y-222800000D03*
X315300000Y-222750000D03*
X221850000Y-66690000D03*
X188366400Y-45008800D03*
X54608200Y-225156000D03*
X256600000Y-60010000D03*
X213760000Y-95790000D03*
X234570000Y-153310000D03*
X236330000Y-91200000D03*
X209320000Y-77100000D03*
X257075000Y-192775000D03*
X292720000Y-141970000D03*
X66575000Y-88525000D03*
X264575000Y-222750000D03*
X57375000Y-128100000D03*
X62575000Y-107925000D03*
X183590000Y-204090000D03*
X100150000Y-111900000D03*
X63548200Y-224360000D03*
X183438800Y-51663600D03*
X211025000Y-192825000D03*
X307800000Y-217475000D03*
X160200000Y-192800000D03*
X307870000Y-115830000D03*
X285300000Y-127900000D03*
X170770000Y-66670000D03*
X256680000Y-161630000D03*
X162966400Y-46126400D03*
X195825000Y-219450000D03*
X188360000Y-146630000D03*
X289930000Y-146660000D03*
X211000000Y-167400000D03*
X162960000Y-198070000D03*
X308360000Y-90570000D03*
X162950000Y-223000000D03*
X185600000Y-167390000D03*
X239150000Y-197400000D03*
X185630000Y-141970000D03*
X343525000Y-192775000D03*
X259850000Y-229750000D03*
X267970000Y-45821600D03*
X267614400Y-40436800D03*
X160250000Y-91210000D03*
X239040000Y-70370000D03*
X220929200Y-39420800D03*
X195820000Y-117340000D03*
X213614000Y-45008800D03*
X72390000Y-88138000D03*
X159900000Y-65800000D03*
X183520000Y-153290000D03*
X161696400Y-38760400D03*
X234350000Y-127890000D03*
X257030000Y-166690000D03*
X259920000Y-127890000D03*
X340750000Y-121260000D03*
X61290200Y-81305400D03*
X282440000Y-90310000D03*
X160200000Y-218175000D03*
X243850000Y-204975000D03*
X162970000Y-96810000D03*
X315340000Y-70310000D03*
X333150000Y-166630000D03*
X282425000Y-191900000D03*
X259825000Y-204100000D03*
X292710000Y-65810000D03*
X317925000Y-192850000D03*
X289820000Y-70310000D03*
X318075000Y-218225000D03*
X221390000Y-142630000D03*
X292760400Y-40386000D03*
X310750000Y-102490000D03*
X343490000Y-167390000D03*
X292740000Y-91220000D03*
X221300000Y-193700000D03*
X340750000Y-146550000D03*
X343490000Y-116620000D03*
X256934580Y-65151000D03*
X58801000Y-113538000D03*
X52998200Y-236310000D03*
X213710000Y-121280000D03*
X257911600Y-40894000D03*
X282346400Y-39370000D03*
X170470000Y-91960000D03*
X53700000Y-125250000D03*
X333200000Y-90530000D03*
X234430000Y-102480000D03*
X239150000Y-121230000D03*
X158240000Y-153310000D03*
X250203580Y-208534000D03*
X285140400Y-51714400D03*
X267310000Y-141980000D03*
X161240000Y-141980000D03*
X158150000Y-178720000D03*
X191922400Y-45821600D03*
X185620000Y-192790000D03*
X310425000Y-204100000D03*
X209075000Y-204100000D03*
X208737200Y-51714400D03*
X185490000Y-91180000D03*
X212242400Y-38912800D03*
X249187580Y-160147000D03*
X214210000Y-70370000D03*
X336100000Y-127910000D03*
X285360000Y-178700000D03*
X195940000Y-168290000D03*
X188190000Y-121190000D03*
X170500000Y-168280000D03*
X343420000Y-91220000D03*
X315340000Y-146650000D03*
X310640000Y-153300000D03*
X61722000Y-123317000D03*
X59690000Y-89027000D03*
X90551000Y-96647000D03*
X267300000Y-218200000D03*
X158200000Y-127900000D03*
X282390000Y-64910000D03*
X246225000Y-219456000D03*
X157890000Y-77100000D03*
X236240000Y-65790000D03*
X340720000Y-172080000D03*
X289915600Y-44958000D03*
X195681600Y-39268400D03*
X162940000Y-122180000D03*
X335890000Y-178690000D03*
X250203580Y-106553000D03*
X84700000Y-87700000D03*
X234460000Y-77100000D03*
X264550000Y-95780000D03*
X188290000Y-70390000D03*
X259860000Y-153300000D03*
X188330000Y-95740000D03*
X162930000Y-172790000D03*
X289954580Y-204216000D03*
X188481580Y-127889000D03*
X340754580Y-178562000D03*
X239154580Y-127889000D03*
X162827580Y-77089000D03*
X56415800Y-65014800D03*
X239154580Y-229489000D03*
X213881580Y-153416000D03*
X214262580Y-77089000D03*
X264681580Y-153416000D03*
X239154580Y-51689000D03*
X340754580Y-77089000D03*
X188354580Y-77089000D03*
X289954580Y-229489000D03*
X239281580Y-178562000D03*
X239281580Y-204216000D03*
X213881580Y-229616000D03*
X340754580Y-51689000D03*
X264681580Y-204216000D03*
X188354580Y-102489000D03*
X87503000Y-98425000D03*
X56415800Y-63814800D03*
X162954580Y-127889000D03*
X55215800Y-65014800D03*
X290081580Y-127889000D03*
X340627580Y-229489000D03*
X289954580Y-51689000D03*
X340754580Y-127889000D03*
X163081580Y-153416000D03*
X264681580Y-127889000D03*
X188354580Y-51689000D03*
X162954580Y-229514400D03*
X264681580Y-51689000D03*
X162954580Y-178562000D03*
X188481580Y-178562000D03*
X239154580Y-77089000D03*
X315481580Y-102489000D03*
X163081580Y-102489000D03*
X61341000Y-131191000D03*
X60198000Y-129921000D03*
X289954580Y-102489000D03*
X162954580Y-51689000D03*
X315227580Y-204216000D03*
X162827580Y-204089000D03*
X213881580Y-178562000D03*
X188227580Y-153416000D03*
X315354580Y-77089000D03*
X239154580Y-102489000D03*
X213754580Y-102489000D03*
X55215800Y-63814800D03*
X59055000Y-131191000D03*
X315354580Y-178562000D03*
X264554580Y-229489000D03*
X60198000Y-131191000D03*
X340995000Y-102489000D03*
X264681580Y-77089000D03*
X315481580Y-153543000D03*
X188354580Y-229616000D03*
X315354580Y-229489000D03*
X239281580Y-153416000D03*
X289954580Y-153543000D03*
X213754580Y-127889000D03*
X213881580Y-204216000D03*
X213754580Y-51689000D03*
X315354580Y-51689000D03*
X188354580Y-204216000D03*
X264681580Y-178562000D03*
X340881580Y-153543000D03*
X264554580Y-102489000D03*
X69800000Y-84200000D03*
X290081580Y-77089000D03*
X290081580Y-178562000D03*
X315481580Y-127889000D03*
X340754580Y-204216000D03*
X61341000Y-129921000D03*
X58166000Y-123825000D03*
X192672580Y-93345000D03*
X244602000Y-86817200D03*
X285128580Y-117221000D03*
X103886000Y-122682000D03*
X167399580Y-93345000D03*
X246888000Y-203454000D03*
X250698000Y-85344000D03*
X167209580Y-218059000D03*
X192799580Y-67945000D03*
X252526800Y-181533800D03*
X167399580Y-169545000D03*
X218326580Y-144145500D03*
X192799580Y-118745000D03*
X259728580Y-117221000D03*
X310650000Y-218950000D03*
X285128580Y-91567000D03*
X335674580Y-66167000D03*
X73318200Y-230680000D03*
X84328000Y-91567000D03*
X239662580Y-61595000D03*
X244856000Y-180086000D03*
X192799580Y-169545000D03*
X74168000Y-123698000D03*
X106700000Y-101100000D03*
X285225000Y-218850000D03*
X167526580Y-195072000D03*
X167526580Y-42545500D03*
X244348000Y-53975000D03*
X336050000Y-193500000D03*
X259675000Y-218975000D03*
X259982580Y-66167000D03*
X88900000Y-68580000D03*
X259855580Y-142748000D03*
X218199580Y-42545000D03*
X244602000Y-85344000D03*
X68984600Y-233538000D03*
X244856000Y-100965000D03*
X310575000Y-168175000D03*
X218326580Y-93345000D03*
X71473800Y-235265200D03*
X97282000Y-198120000D03*
X74168000Y-122174000D03*
X310909580Y-91821000D03*
X69619600Y-220838000D03*
X81026000Y-98425000D03*
X252526800Y-178562000D03*
X56166200Y-218060000D03*
X285225000Y-193450000D03*
X218199580Y-118745000D03*
X58801000Y-122809000D03*
X335925000Y-168300000D03*
X285001580Y-40767000D03*
X243599580Y-144145000D03*
X192799580Y-195072000D03*
X259728580Y-193548000D03*
X250698000Y-83820000D03*
X244856000Y-178562000D03*
X335928580Y-117221000D03*
X64262000Y-118237000D03*
X243218580Y-218059000D03*
X57531000Y-122809000D03*
X335801580Y-40767000D03*
X335925000Y-219000000D03*
X259601580Y-40767000D03*
X119761000Y-198120000D03*
X285255580Y-66167000D03*
X66675000Y-68580000D03*
X259728580Y-91567000D03*
X243599580Y-195072000D03*
X335928580Y-91821000D03*
X245110000Y-151892000D03*
X82296000Y-113538000D03*
X192926580Y-42545000D03*
X310655580Y-66167000D03*
X310475000Y-193450000D03*
X167399580Y-67945000D03*
X310401580Y-40767000D03*
X246761000Y-50800000D03*
X64008000Y-122174000D03*
X75184000Y-198120000D03*
X259725000Y-168000000D03*
X310528580Y-117221000D03*
X168415580Y-144399000D03*
X243599580Y-93345000D03*
X59436000Y-123825000D03*
X103124000Y-110490000D03*
X243599580Y-118745000D03*
X252526800Y-180086000D03*
X310528580Y-142748000D03*
X64008000Y-123698000D03*
X192799580Y-144272000D03*
X244602000Y-83820000D03*
X218072580Y-218059000D03*
X243599580Y-169545000D03*
X218707580Y-67945000D03*
X244856000Y-181559200D03*
X192672580Y-218059000D03*
X218199580Y-169545500D03*
X64008000Y-125222000D03*
X335928580Y-142748000D03*
X74168000Y-125222000D03*
X218199580Y-195072000D03*
X250698000Y-86842600D03*
X60960000Y-89154000D03*
X111125000Y-68580000D03*
X100000000Y-109050000D03*
X243987029Y-42545000D03*
X56896000Y-123825000D03*
X243599580Y-67945000D03*
X285255580Y-142748000D03*
X167399580Y-118745000D03*
X58801000Y-121666000D03*
X285225000Y-168075000D03*
X237630580Y-112141000D03*
X55235000Y-75187800D03*
X56435000Y-76387800D03*
X59613800Y-82296000D03*
X56435000Y-75187800D03*
X55235000Y-76387800D03*
X66600000Y-86700000D03*
X59850000Y-87875000D03*
X84500000Y-89200000D03*
X85900000Y-99700000D03*
X166383580Y-221234000D03*
X345326580Y-221107000D03*
X158509580Y-195707000D03*
X345326580Y-225933000D03*
X166637580Y-197866000D03*
X249187580Y-196342000D03*
X260109580Y-195580000D03*
X259220580Y-200533000D03*
X249187580Y-200533000D03*
X158255580Y-170434000D03*
X173114580Y-183515000D03*
X347866580Y-195707000D03*
X345072580Y-195707000D03*
X167399580Y-173355000D03*
X172098580Y-184658000D03*
X158255580Y-144907000D03*
X173114580Y-157861000D03*
X344818580Y-170307000D03*
X348628580Y-170307000D03*
X167526580Y-148082000D03*
X171844580Y-159512000D03*
X249822580Y-145034000D03*
X260617580Y-145034000D03*
X260617580Y-148082000D03*
X249822580Y-148209000D03*
X348882580Y-144907000D03*
X173114580Y-132207000D03*
X158255580Y-119507000D03*
X344945580Y-144907000D03*
X167399580Y-122428000D03*
X171717580Y-134112000D03*
X158128580Y-94107000D03*
X345199580Y-119126000D03*
X348882580Y-118999000D03*
X173241580Y-106680000D03*
X167399580Y-97282000D03*
X171717580Y-108966000D03*
X257950580Y-94234000D03*
X249568580Y-96139000D03*
X249568580Y-98933000D03*
X257950580Y-99060000D03*
X158255580Y-68834000D03*
X345199580Y-93980000D03*
X348755580Y-93980000D03*
X173368580Y-80645000D03*
X167272580Y-71882000D03*
X171590580Y-83566000D03*
X348755580Y-68453000D03*
X345199580Y-68453000D03*
X158509580Y-44323000D03*
X173495580Y-55118000D03*
X171463580Y-58039000D03*
X167272580Y-46863000D03*
X247663580Y-44577000D03*
X260617580Y-44577000D03*
X247917580Y-46101000D03*
X260617580Y-46228000D03*
X98081500Y-106045000D03*
X97282000Y-104902000D03*
X98425000Y-103378000D03*
X99568000Y-102362000D03*
X78363299Y-92333299D03*
X77450000Y-84325000D03*
X83566000Y-84709000D03*
X75184000Y-94704500D03*
X63754000Y-95631000D03*
X63373000Y-94107000D03*
X77851000Y-88011000D03*
X90300000Y-87850000D03*
X91313000Y-86614000D03*
X62357000Y-94107000D03*
X76962000Y-88519000D03*
X62484000Y-96393000D03*
X72517000Y-131064000D03*
X72390000Y-103632000D03*
X246139580Y-208534000D03*
X246012580Y-110871000D03*
X113919000Y-116586000D03*
X246012580Y-60198000D03*
X246139580Y-161671000D03*
X67792600Y-101537100D03*
X69125000Y-219700000D03*
X65049400Y-100863400D03*
X82042000Y-109093000D03*
X71374000Y-102616000D03*
X71247000Y-133858000D03*
X61264800Y-100126800D03*
X82804000Y-108368500D03*
X93599000Y-109347000D03*
X73914000Y-102235000D03*
X72030920Y-82277512D03*
X60900000Y-84860000D03*
X71288456Y-83019976D03*
X55980000Y-84350000D03*
X60810500Y-86115000D03*
X248806580Y-153162000D03*
X248855080Y-204089000D03*
X248679580Y-101600000D03*
X248750207Y-49849821D03*
X104521000Y-107315000D03*
X249531080Y-152034942D03*
X249598267Y-101206277D03*
X249822580Y-203327000D03*
X249568580Y-49276000D03*
X104521000Y-106045000D03*
X66851000Y-229143800D03*
X68368400Y-113174000D03*
X109347000Y-123825000D03*
X82042000Y-197485000D03*
X109982000Y-122174000D03*
X111125000Y-121412000D03*
X71270600Y-225029000D03*
X66878200Y-102489000D03*
X71298200Y-228790000D03*
X54648200Y-229540000D03*
X65800000Y-103400000D03*
X67698200Y-231690000D03*
X72028200Y-227620000D03*
X55488200Y-228460000D03*
X67564000Y-104114600D03*
X64648200Y-226810000D03*
M02*
